<svg xmlns="http://www.w3.org/2000/svg" width="576" height="432" viewBox="0 0 576 432"><defs><style>.cls-1{fill:#00415a;}.cls-2,.cls-3{fill:none;stroke-miterlimit:10;stroke-width:9px;}.cls-2{stroke:#fff;}.cls-3{stroke:#52b790;}</style></defs><g id="Baggrund"><rect class="cls-1" x="72" y="-72" width="432" height="576" transform="translate(504 -72) rotate(90)"/></g><g id="Layer_1" data-name="Layer 1"><path class="cls-2" d="M478.25,167l7.46,7.46-59.94,59.94c-6.12,6.11-17.17,5-24.7-2.55s-8.66-18.58-2.55-24.7l59.94-59.94L478.25,167"/><line class="cls-2" x1="401.03" y1="231.88" x2="378.22" y2="254.69"/><line class="cls-2" x1="472.9" y1="160.01" x2="498.41" y2="134.5"/><line class="cls-2" x1="483.23" y1="117.78" x2="515.13" y2="149.68"/><path class="cls-2" d="M196.64,253.89A77.28,77.28,0,0,0,119.58,331"/><path class="cls-3" d="M299.2,253.89A77.29,77.29,0,0,1,376.26,331"/><circle class="cls-2" cx="247.92" cy="162.1" r="61.05"/></g></svg>