<svg xmlns="http://www.w3.org/2000/svg" width="576" height="432" viewBox="0 0 576 432"><defs><style>.cls-1{fill:#00415a;}.cls-2{fill:#0b87bf;}.cls-3{fill:#fff;}.cls-4{fill:none;stroke:#0b87bf;stroke-miterlimit:10;stroke-width:2px;}</style></defs><g id="Baggrund"><rect class="cls-1" x="72" y="-72" width="432" height="576" transform="translate(504 -72) rotate(90)"/></g><g id="Layer_2" data-name="Layer 2"><path class="cls-2" d="M272.79,34.55a5.71,5.71,0,1,0,5.71,5.71A5.71,5.71,0,0,0,272.79,34.55Z"/><path class="cls-2" d="M239.27,51.31A5.71,5.71,0,1,0,245,57,5.72,5.72,0,0,0,239.27,51.31Z"/><path class="cls-2" d="M256,51.31a5.71,5.71,0,1,0,5.71,5.7A5.71,5.71,0,0,0,256,51.31Z"/><path class="cls-2" d="M222.52,68.06a5.71,5.71,0,1,0,5.7,5.71A5.71,5.71,0,0,0,222.52,68.06Z"/><path class="cls-2" d="M239.27,68.06A5.71,5.71,0,1,0,245,73.77,5.72,5.72,0,0,0,239.27,68.06Z"/><path class="cls-2" d="M256,68.06a5.71,5.71,0,1,0,5.71,5.71A5.71,5.71,0,0,0,256,68.06Z"/><path class="cls-2" d="M272.79,68.06a5.71,5.71,0,1,0,5.71,5.71A5.71,5.71,0,0,0,272.79,68.06Z"/><path class="cls-2" d="M205.76,84.82a5.71,5.71,0,1,0,5.71,5.71A5.71,5.71,0,0,0,205.76,84.82Z"/><path class="cls-2" d="M222.52,84.82a5.71,5.71,0,1,0,5.7,5.71A5.71,5.71,0,0,0,222.52,84.82Z"/><path class="cls-2" d="M239.27,84.82A5.71,5.71,0,1,0,245,90.53,5.72,5.72,0,0,0,239.27,84.82Z"/><path class="cls-2" d="M256,84.82a5.71,5.71,0,1,0,5.71,5.71A5.71,5.71,0,0,0,256,84.82Z"/><path class="cls-2" d="M272.79,84.82a5.71,5.71,0,1,0,5.71,5.71A5.71,5.71,0,0,0,272.79,84.82Z"/><path class="cls-3" d="M155.49,101.58a5.71,5.71,0,1,0,5.71,5.71A5.71,5.71,0,0,0,155.49,101.58Z"/><path class="cls-2" d="M172.25,101.58a5.71,5.71,0,1,0,5.7,5.71A5.71,5.71,0,0,0,172.25,101.58Z"/><path class="cls-2" d="M189,101.58a5.71,5.71,0,1,0,5.71,5.71A5.71,5.71,0,0,0,189,101.58Z"/><path class="cls-2" d="M205.76,101.58a5.71,5.71,0,1,0,5.71,5.71A5.71,5.71,0,0,0,205.76,101.58Z"/><path class="cls-2" d="M222.52,101.58a5.71,5.71,0,1,0,5.7,5.71A5.71,5.71,0,0,0,222.52,101.58Z"/><path class="cls-3" d="M239.27,101.58a5.71,5.71,0,1,0,5.71,5.71A5.72,5.72,0,0,0,239.27,101.58Z"/><path class="cls-2" d="M256,101.58a5.71,5.71,0,1,0,5.71,5.71A5.71,5.71,0,0,0,256,101.58Z"/><path class="cls-2" d="M138.73,118.33a5.71,5.71,0,1,0,5.71,5.71A5.71,5.71,0,0,0,138.73,118.33Z"/><path class="cls-2" d="M155.49,118.33A5.71,5.71,0,1,0,161.2,124,5.71,5.71,0,0,0,155.49,118.33Z"/><path class="cls-2" d="M172.25,118.33A5.71,5.71,0,1,0,178,124,5.71,5.71,0,0,0,172.25,118.33Z"/><path class="cls-2" d="M189,118.33a5.71,5.71,0,1,0,5.71,5.71A5.71,5.71,0,0,0,189,118.33Z"/><path class="cls-2" d="M205.76,118.33a5.71,5.71,0,1,0,5.71,5.71A5.71,5.71,0,0,0,205.76,118.33Z"/><path class="cls-2" d="M222.52,118.33a5.71,5.71,0,1,0,5.7,5.71A5.71,5.71,0,0,0,222.52,118.33Z"/><path class="cls-2" d="M239.27,118.33A5.71,5.71,0,1,0,245,124,5.72,5.72,0,0,0,239.27,118.33Z"/><path class="cls-2" d="M256,118.33a5.71,5.71,0,1,0,5.71,5.71A5.71,5.71,0,0,0,256,118.33Z"/><path class="cls-2" d="M122,135.09a5.71,5.71,0,1,0,5.71,5.71A5.72,5.72,0,0,0,122,135.09Z"/><path class="cls-2" d="M138.73,135.09a5.71,5.71,0,1,0,5.71,5.71A5.71,5.71,0,0,0,138.73,135.09Z"/><path class="cls-2" d="M155.49,135.09a5.71,5.71,0,1,0,5.71,5.71A5.71,5.71,0,0,0,155.49,135.09Z"/><path class="cls-2" d="M172.25,135.09a5.71,5.71,0,1,0,5.7,5.71A5.71,5.71,0,0,0,172.25,135.09Z"/><path class="cls-2" d="M189,135.09a5.71,5.71,0,1,0,5.71,5.71A5.71,5.71,0,0,0,189,135.09Z"/><path class="cls-2" d="M205.76,135.09a5.71,5.71,0,1,0,5.71,5.71A5.71,5.71,0,0,0,205.76,135.09Z"/><path class="cls-2" d="M222.52,135.09a5.71,5.71,0,1,0,5.7,5.71A5.71,5.71,0,0,0,222.52,135.09Z"/><path class="cls-2" d="M239.27,135.09A5.71,5.71,0,1,0,245,140.8,5.72,5.72,0,0,0,239.27,135.09Z"/><path class="cls-2" d="M256,135.09a5.71,5.71,0,1,0,5.71,5.71A5.71,5.71,0,0,0,256,135.09Z"/><path class="cls-2" d="M122,151.85a5.71,5.71,0,1,0,5.71,5.71A5.72,5.72,0,0,0,122,151.85Z"/><path class="cls-2" d="M138.73,151.85a5.71,5.71,0,1,0,5.71,5.71A5.71,5.71,0,0,0,138.73,151.85Z"/><path class="cls-3" d="M155.49,151.85a5.71,5.71,0,1,0,5.71,5.71A5.71,5.71,0,0,0,155.49,151.85Z"/><path class="cls-2" d="M172.25,151.85a5.71,5.71,0,1,0,5.7,5.71A5.71,5.71,0,0,0,172.25,151.85Z"/><path class="cls-2" d="M189,151.85a5.71,5.71,0,1,0,5.71,5.71A5.71,5.71,0,0,0,189,151.85Z"/><path class="cls-2" d="M205.76,151.85a5.71,5.71,0,1,0,5.71,5.71A5.71,5.71,0,0,0,205.76,151.85Z"/><path class="cls-3" d="M222.52,151.85a5.71,5.71,0,1,0,5.7,5.71A5.71,5.71,0,0,0,222.52,151.85Z"/><path class="cls-2" d="M239.27,151.85a5.71,5.71,0,1,0,5.71,5.71A5.72,5.72,0,0,0,239.27,151.85Z"/><path class="cls-2" d="M256,151.85a5.71,5.71,0,1,0,5.71,5.71A5.71,5.71,0,0,0,256,151.85Z"/><path class="cls-2" d="M122,168.61a5.71,5.71,0,1,0,5.71,5.7A5.72,5.72,0,0,0,122,168.61Z"/><path class="cls-2" d="M138.73,168.61a5.71,5.71,0,1,0,5.71,5.7A5.71,5.71,0,0,0,138.73,168.61Z"/><path class="cls-2" d="M155.49,168.61a5.71,5.71,0,1,0,5.71,5.7A5.71,5.71,0,0,0,155.49,168.61Z"/><path class="cls-2" d="M172.25,168.61a5.71,5.71,0,1,0,5.7,5.7A5.71,5.71,0,0,0,172.25,168.61Z"/><path class="cls-2" d="M189,168.61a5.71,5.71,0,1,0,5.71,5.7A5.71,5.71,0,0,0,189,168.61Z"/><path class="cls-2" d="M205.76,168.61a5.71,5.71,0,1,0,5.71,5.7A5.71,5.71,0,0,0,205.76,168.61Z"/><path class="cls-2" d="M222.52,168.61a5.71,5.71,0,1,0,5.7,5.7A5.71,5.71,0,0,0,222.52,168.61Z"/><path class="cls-2" d="M239.27,168.61a5.71,5.71,0,1,0,5.71,5.7A5.72,5.72,0,0,0,239.27,168.61Z"/><path class="cls-2" d="M256,168.61a5.71,5.71,0,1,0,5.71,5.7A5.71,5.71,0,0,0,256,168.61Z"/><path class="cls-2" d="M272.79,168.61a5.71,5.71,0,1,0,5.71,5.7A5.71,5.71,0,0,0,272.79,168.61Z"/><path class="cls-2" d="M289.55,168.61a5.71,5.71,0,1,0,5.7,5.7A5.71,5.71,0,0,0,289.55,168.61Z"/><path class="cls-2" d="M122,185.36a5.71,5.71,0,1,0,5.71,5.71A5.72,5.72,0,0,0,122,185.36Z"/><path class="cls-3" d="M138.73,185.36a5.71,5.71,0,1,0,5.71,5.71A5.71,5.71,0,0,0,138.73,185.36Z"/><path class="cls-2" d="M155.49,185.36a5.71,5.71,0,1,0,5.71,5.71A5.71,5.71,0,0,0,155.49,185.36Z"/><path class="cls-2" d="M172.25,185.36a5.71,5.71,0,1,0,5.7,5.71A5.71,5.71,0,0,0,172.25,185.36Z"/><path class="cls-2" d="M189,185.36a5.71,5.71,0,1,0,5.71,5.71A5.71,5.71,0,0,0,189,185.36Z"/><path class="cls-2" d="M205.76,185.36a5.71,5.71,0,1,0,5.71,5.71A5.71,5.71,0,0,0,205.76,185.36Z"/><path class="cls-2" d="M222.52,185.36a5.71,5.71,0,1,0,5.7,5.71A5.71,5.71,0,0,0,222.52,185.36Z"/><path class="cls-2" d="M239.27,185.36a5.71,5.71,0,1,0,5.71,5.71A5.72,5.72,0,0,0,239.27,185.36Z"/><path class="cls-2" d="M256,185.36a5.71,5.71,0,1,0,5.71,5.71A5.71,5.71,0,0,0,256,185.36Z"/><path class="cls-3" d="M272.79,185.36a5.71,5.71,0,1,0,5.71,5.71A5.71,5.71,0,0,0,272.79,185.36Z"/><path class="cls-2" d="M289.55,185.36a5.71,5.71,0,1,0,5.7,5.71A5.71,5.71,0,0,0,289.55,185.36Z"/><path class="cls-2" d="M122,202.12a5.71,5.71,0,1,0,5.71,5.71A5.72,5.72,0,0,0,122,202.12Z"/><path class="cls-2" d="M138.73,202.12a5.71,5.71,0,1,0,5.71,5.71A5.71,5.71,0,0,0,138.73,202.12Z"/><path class="cls-2" d="M155.49,202.12a5.71,5.71,0,1,0,5.71,5.71A5.71,5.71,0,0,0,155.49,202.12Z"/><path class="cls-2" d="M172.25,202.12a5.71,5.71,0,1,0,5.7,5.71A5.71,5.71,0,0,0,172.25,202.12Z"/><path class="cls-2" d="M189,202.12a5.71,5.71,0,1,0,5.71,5.71A5.71,5.71,0,0,0,189,202.12Z"/><path class="cls-2" d="M205.76,202.12a5.71,5.71,0,1,0,5.71,5.71A5.71,5.71,0,0,0,205.76,202.12Z"/><path class="cls-2" d="M222.52,202.12a5.71,5.71,0,1,0,5.7,5.71A5.71,5.71,0,0,0,222.52,202.12Z"/><path class="cls-2" d="M239.27,202.12a5.71,5.71,0,1,0,5.71,5.71A5.72,5.72,0,0,0,239.27,202.12Z"/><path class="cls-2" d="M256,202.12a5.71,5.71,0,1,0,5.71,5.71A5.71,5.71,0,0,0,256,202.12Z"/><path class="cls-2" d="M272.79,202.12a5.71,5.71,0,1,0,5.71,5.71A5.71,5.71,0,0,0,272.79,202.12Z"/><path class="cls-2" d="M289.55,202.12a5.71,5.71,0,1,0,5.7,5.71A5.71,5.71,0,0,0,289.55,202.12Z"/><path class="cls-2" d="M122,218.88a5.71,5.71,0,1,0,5.71,5.71A5.72,5.72,0,0,0,122,218.88Z"/><path class="cls-2" d="M138.73,218.88a5.71,5.71,0,1,0,5.71,5.71A5.71,5.71,0,0,0,138.73,218.88Z"/><path class="cls-2" d="M155.49,218.88a5.71,5.71,0,1,0,5.71,5.71A5.71,5.71,0,0,0,155.49,218.88Z"/><path class="cls-2" d="M172.25,218.88a5.71,5.71,0,1,0,5.7,5.71A5.71,5.71,0,0,0,172.25,218.88Z"/><path class="cls-3" d="M189,218.88a5.71,5.71,0,1,0,5.71,5.71A5.71,5.71,0,0,0,189,218.88Z"/><path class="cls-2" d="M205.76,218.88a5.71,5.71,0,1,0,5.71,5.71A5.71,5.71,0,0,0,205.76,218.88Z"/><path class="cls-2" d="M222.52,218.88a5.71,5.71,0,1,0,5.7,5.71A5.71,5.71,0,0,0,222.52,218.88Z"/><path class="cls-2" d="M239.27,218.88a5.71,5.71,0,1,0,5.71,5.71A5.72,5.72,0,0,0,239.27,218.88Z"/><path class="cls-2" d="M256,218.88a5.71,5.71,0,1,0,5.71,5.71A5.71,5.71,0,0,0,256,218.88Z"/><path class="cls-2" d="M373.33,218.88a5.71,5.71,0,1,0,5.71,5.71A5.71,5.71,0,0,0,373.33,218.88Z"/><path class="cls-2" d="M390.09,218.88a5.71,5.71,0,1,0,5.71,5.71A5.71,5.71,0,0,0,390.09,218.88Z"/><path class="cls-2" d="M406.85,218.88a5.71,5.71,0,1,0,5.7,5.71A5.71,5.71,0,0,0,406.85,218.88Z"/><path class="cls-2" d="M138.73,235.63a5.71,5.71,0,1,0,5.71,5.71A5.72,5.72,0,0,0,138.73,235.63Z"/><path class="cls-2" d="M155.49,235.63a5.71,5.71,0,1,0,5.71,5.71A5.72,5.72,0,0,0,155.49,235.63Z"/><path class="cls-2" d="M172.25,235.63a5.71,5.71,0,1,0,5.7,5.71A5.72,5.72,0,0,0,172.25,235.63Z"/><path class="cls-2" d="M189,235.63a5.71,5.71,0,1,0,5.71,5.71A5.72,5.72,0,0,0,189,235.63Z"/><path class="cls-2" d="M205.76,235.63a5.71,5.71,0,1,0,5.71,5.71A5.72,5.72,0,0,0,205.76,235.63Z"/><path class="cls-2" d="M222.52,235.63a5.71,5.71,0,1,0,5.7,5.71A5.72,5.72,0,0,0,222.52,235.63Z"/><path class="cls-2" d="M239.27,235.63a5.71,5.71,0,1,0,5.71,5.71A5.73,5.73,0,0,0,239.27,235.63Z"/><path class="cls-2" d="M256,235.63a5.71,5.71,0,1,0,5.71,5.71A5.72,5.72,0,0,0,256,235.63Z"/><path class="cls-2" d="M323.06,235.63a5.71,5.71,0,1,0,5.71,5.71A5.72,5.72,0,0,0,323.06,235.63Z"/><path class="cls-2" d="M339.82,235.63a5.71,5.71,0,1,0,5.7,5.71A5.72,5.72,0,0,0,339.82,235.63Z"/><path class="cls-2" d="M356.57,235.63a5.71,5.71,0,1,0,5.71,5.71A5.72,5.72,0,0,0,356.57,235.63Z"/><path class="cls-2" d="M373.33,235.63a5.71,5.71,0,1,0,5.71,5.71A5.72,5.72,0,0,0,373.33,235.63Z"/><path class="cls-2" d="M390.09,235.63a5.71,5.71,0,1,0,5.71,5.71A5.72,5.72,0,0,0,390.09,235.63Z"/><path class="cls-2" d="M406.85,235.63a5.71,5.71,0,1,0,5.7,5.71A5.72,5.72,0,0,0,406.85,235.63Z"/><path class="cls-2" d="M122,252.39a5.71,5.71,0,1,0,5.71,5.71A5.72,5.72,0,0,0,122,252.39Z"/><path class="cls-3" d="M138.73,252.39a5.71,5.71,0,1,0,5.71,5.71A5.71,5.71,0,0,0,138.73,252.39Z"/><path class="cls-2" d="M155.49,252.39a5.71,5.71,0,1,0,5.71,5.71A5.71,5.71,0,0,0,155.49,252.39Z"/><path class="cls-2" d="M172.25,252.39a5.71,5.71,0,1,0,5.7,5.71A5.71,5.71,0,0,0,172.25,252.39Z"/><path class="cls-2" d="M189,252.39a5.71,5.71,0,1,0,5.71,5.71A5.71,5.71,0,0,0,189,252.39Z"/><path class="cls-2" d="M205.76,252.39a5.71,5.71,0,1,0,5.71,5.71A5.71,5.71,0,0,0,205.76,252.39Z"/><path class="cls-2" d="M222.52,252.39a5.71,5.71,0,1,0,5.7,5.71A5.71,5.71,0,0,0,222.52,252.39Z"/><path class="cls-2" d="M239.27,252.39A5.71,5.71,0,1,0,245,258.1,5.72,5.72,0,0,0,239.27,252.39Z"/><path class="cls-3" d="M272.79,252.39a5.71,5.71,0,1,0,5.71,5.71A5.71,5.71,0,0,0,272.79,252.39Z"/><path class="cls-2" d="M323.06,252.39a5.71,5.71,0,1,0,5.71,5.71A5.71,5.71,0,0,0,323.06,252.39Z"/><path class="cls-2" d="M339.82,252.39a5.71,5.71,0,1,0,5.7,5.71A5.71,5.71,0,0,0,339.82,252.39Z"/><path class="cls-2" d="M356.57,252.39a5.71,5.71,0,1,0,5.71,5.71A5.71,5.71,0,0,0,356.57,252.39Z"/><path class="cls-2" d="M373.33,252.39A5.71,5.71,0,1,0,379,258.1,5.71,5.71,0,0,0,373.33,252.39Z"/><path class="cls-3" d="M390.09,252.39a5.71,5.71,0,1,0,5.71,5.71A5.71,5.71,0,0,0,390.09,252.39Z"/><path class="cls-2" d="M406.85,252.39a5.71,5.71,0,1,0,5.7,5.71A5.71,5.71,0,0,0,406.85,252.39Z"/><path class="cls-2" d="M122,269.15a5.71,5.71,0,1,0,5.71,5.71A5.72,5.72,0,0,0,122,269.15Z"/><path class="cls-2" d="M138.73,269.15a5.71,5.71,0,1,0,5.71,5.71A5.71,5.71,0,0,0,138.73,269.15Z"/><path class="cls-2" d="M155.49,269.15a5.71,5.71,0,1,0,5.71,5.71A5.71,5.71,0,0,0,155.49,269.15Z"/><path class="cls-2" d="M172.25,269.15a5.71,5.71,0,1,0,5.7,5.71A5.71,5.71,0,0,0,172.25,269.15Z"/><path class="cls-2" d="M189,269.15a5.71,5.71,0,1,0,5.71,5.71A5.71,5.71,0,0,0,189,269.15Z"/><path class="cls-2" d="M205.76,269.15a5.71,5.71,0,1,0,5.71,5.71A5.71,5.71,0,0,0,205.76,269.15Z"/><path class="cls-2" d="M222.52,269.15a5.71,5.71,0,1,0,5.7,5.71A5.71,5.71,0,0,0,222.52,269.15Z"/><path class="cls-2" d="M306.3,269.15a5.71,5.71,0,1,0,5.71,5.71A5.71,5.71,0,0,0,306.3,269.15Z"/><path class="cls-2" d="M323.06,269.15a5.71,5.71,0,1,0,5.71,5.71A5.71,5.71,0,0,0,323.06,269.15Z"/><path class="cls-3" d="M339.82,269.15a5.71,5.71,0,1,0,5.7,5.71A5.71,5.71,0,0,0,339.82,269.15Z"/><path class="cls-2" d="M356.57,269.15a5.71,5.71,0,1,0,5.71,5.71A5.71,5.71,0,0,0,356.57,269.15Z"/><path class="cls-2" d="M373.33,269.15a5.71,5.71,0,1,0,5.71,5.71A5.71,5.71,0,0,0,373.33,269.15Z"/><path class="cls-2" d="M390.09,269.15a5.71,5.71,0,1,0,5.71,5.71A5.71,5.71,0,0,0,390.09,269.15Z"/><path class="cls-2" d="M406.85,269.15a5.71,5.71,0,1,0,5.7,5.71A5.71,5.71,0,0,0,406.85,269.15Z"/><path class="cls-2" d="M138.73,285.91a5.71,5.71,0,1,0,5.71,5.7A5.71,5.71,0,0,0,138.73,285.91Z"/><path class="cls-2" d="M155.49,285.91a5.71,5.71,0,1,0,5.71,5.7A5.71,5.71,0,0,0,155.49,285.91Z"/><path class="cls-2" d="M172.25,285.91a5.71,5.71,0,1,0,5.7,5.7A5.71,5.71,0,0,0,172.25,285.91Z"/><path class="cls-3" d="M189,285.91a5.71,5.71,0,1,0,5.71,5.7A5.71,5.71,0,0,0,189,285.91Z"/><path class="cls-2" d="M205.76,285.91a5.71,5.71,0,1,0,5.71,5.7A5.71,5.71,0,0,0,205.76,285.91Z"/><path class="cls-2" d="M222.52,285.91a5.71,5.71,0,1,0,5.7,5.7A5.71,5.71,0,0,0,222.52,285.91Z"/><path class="cls-2" d="M239.27,285.91a5.71,5.71,0,1,0,5.71,5.7A5.72,5.72,0,0,0,239.27,285.91Z"/><path class="cls-2" d="M256,285.91a5.71,5.71,0,1,0,5.71,5.7A5.71,5.71,0,0,0,256,285.91Z"/><path class="cls-2" d="M272.79,285.91a5.71,5.71,0,1,0,5.71,5.7A5.71,5.71,0,0,0,272.79,285.91Z"/><path class="cls-2" d="M289.55,285.91a5.71,5.71,0,1,0,5.7,5.7A5.71,5.71,0,0,0,289.55,285.91Z"/><path class="cls-2" d="M323.06,285.91a5.71,5.71,0,1,0,5.71,5.7A5.71,5.71,0,0,0,323.06,285.91Z"/><path class="cls-2" d="M339.82,285.91a5.71,5.71,0,1,0,5.7,5.7A5.71,5.71,0,0,0,339.82,285.91Z"/><path class="cls-2" d="M356.57,285.91a5.71,5.71,0,1,0,5.71,5.7A5.71,5.71,0,0,0,356.57,285.91Z"/><path class="cls-2" d="M373.33,285.91a5.71,5.71,0,1,0,5.71,5.7A5.71,5.71,0,0,0,373.33,285.91Z"/><path class="cls-2" d="M390.09,285.91a5.71,5.71,0,1,0,5.71,5.7A5.71,5.71,0,0,0,390.09,285.91Z"/><path class="cls-2" d="M155.49,302.66a5.71,5.71,0,1,0,5.71,5.71A5.71,5.71,0,0,0,155.49,302.66Z"/><path class="cls-2" d="M172.25,302.66a5.71,5.71,0,1,0,5.7,5.71A5.71,5.71,0,0,0,172.25,302.66Z"/><path class="cls-2" d="M189,302.66a5.71,5.71,0,1,0,5.71,5.71A5.71,5.71,0,0,0,189,302.66Z"/><path class="cls-2" d="M205.76,302.66a5.71,5.71,0,1,0,5.71,5.71A5.71,5.71,0,0,0,205.76,302.66Z"/><path class="cls-2" d="M239.27,302.66a5.71,5.71,0,1,0,5.71,5.71A5.72,5.72,0,0,0,239.27,302.66Z"/><path class="cls-2" d="M256,302.66a5.71,5.71,0,1,0,5.71,5.71A5.71,5.71,0,0,0,256,302.66Z"/><path class="cls-3" d="M272.79,302.66a5.71,5.71,0,1,0,5.71,5.71A5.71,5.71,0,0,0,272.79,302.66Z"/><path class="cls-2" d="M289.55,302.66a5.71,5.71,0,1,0,5.7,5.71A5.71,5.71,0,0,0,289.55,302.66Z"/><path class="cls-3" d="M323.06,302.66a5.71,5.71,0,1,0,5.71,5.71A5.71,5.71,0,0,0,323.06,302.66Z"/><path class="cls-2" d="M339.82,302.66a5.71,5.71,0,1,0,5.7,5.71A5.71,5.71,0,0,0,339.82,302.66Z"/><path class="cls-2" d="M356.57,302.66a5.71,5.71,0,1,0,5.71,5.71A5.71,5.71,0,0,0,356.57,302.66Z"/><path class="cls-3" d="M373.33,302.66a5.71,5.71,0,1,0,5.71,5.71A5.71,5.71,0,0,0,373.33,302.66Z"/><path class="cls-2" d="M390.09,302.66a5.71,5.71,0,1,0,5.71,5.71A5.71,5.71,0,0,0,390.09,302.66Z"/><path class="cls-2" d="M155.49,319.42a5.71,5.71,0,1,0,5.71,5.71A5.71,5.71,0,0,0,155.49,319.42Z"/><path class="cls-2" d="M172.25,319.42a5.71,5.71,0,1,0,5.7,5.71A5.71,5.71,0,0,0,172.25,319.42Z"/><path class="cls-2" d="M189,319.42a5.71,5.71,0,1,0,5.71,5.71A5.71,5.71,0,0,0,189,319.42Z"/><path class="cls-2" d="M205.76,319.42a5.71,5.71,0,1,0,5.71,5.71A5.71,5.71,0,0,0,205.76,319.42Z"/><path class="cls-2" d="M239.27,319.42a5.71,5.71,0,1,0,5.71,5.71A5.72,5.72,0,0,0,239.27,319.42Z"/><path class="cls-3" d="M256,319.42a5.71,5.71,0,1,0,5.71,5.71A5.71,5.71,0,0,0,256,319.42Z"/><path class="cls-2" d="M272.79,319.42a5.71,5.71,0,1,0,5.71,5.71A5.71,5.71,0,0,0,272.79,319.42Z"/><path class="cls-2" d="M289.55,319.42a5.71,5.71,0,1,0,5.7,5.71A5.71,5.71,0,0,0,289.55,319.42Z"/><path class="cls-2" d="M323.06,319.42a5.71,5.71,0,1,0,5.71,5.71A5.71,5.71,0,0,0,323.06,319.42Z"/><path class="cls-2" d="M339.82,319.42a5.71,5.71,0,1,0,5.7,5.71A5.71,5.71,0,0,0,339.82,319.42Z"/><path class="cls-2" d="M356.57,319.42a5.71,5.71,0,1,0,5.71,5.71A5.71,5.71,0,0,0,356.57,319.42Z"/><path class="cls-2" d="M373.33,319.42a5.71,5.71,0,1,0,5.71,5.71A5.71,5.71,0,0,0,373.33,319.42Z"/><path class="cls-2" d="M155.49,336.18a5.71,5.71,0,1,0,5.71,5.71A5.71,5.71,0,0,0,155.49,336.18Z"/><path class="cls-2" d="M172.25,336.18a5.71,5.71,0,1,0,5.7,5.71A5.71,5.71,0,0,0,172.25,336.18Z"/><path class="cls-2" d="M189,336.18a5.71,5.71,0,1,0,5.71,5.71A5.71,5.71,0,0,0,189,336.18Z"/><path class="cls-2" d="M205.76,336.18a5.71,5.71,0,1,0,5.71,5.71A5.71,5.71,0,0,0,205.76,336.18Z"/><path class="cls-2" d="M222.52,336.18a5.71,5.71,0,1,0,5.7,5.71A5.71,5.71,0,0,0,222.52,336.18Z"/><path class="cls-2" d="M256,336.18a5.71,5.71,0,1,0,5.71,5.71A5.71,5.71,0,0,0,256,336.18Z"/><path class="cls-2" d="M272.79,336.18a5.71,5.71,0,1,0,5.71,5.71A5.71,5.71,0,0,0,272.79,336.18Z"/><path class="cls-2" d="M373.33,336.18a5.71,5.71,0,1,0,5.71,5.71A5.71,5.71,0,0,0,373.33,336.18Z"/><path class="cls-2" d="M390.09,336.18a5.71,5.71,0,1,0,5.71,5.71A5.71,5.71,0,0,0,390.09,336.18Z"/><path class="cls-3" d="M406.85,336.18a5.71,5.71,0,1,0,5.7,5.71A5.71,5.71,0,0,0,406.85,336.18Z"/><path class="cls-2" d="M155.49,352.94a5.71,5.71,0,1,0,5.71,5.7A5.71,5.71,0,0,0,155.49,352.94Z"/><path class="cls-2" d="M172.25,352.94a5.71,5.71,0,1,0,5.7,5.7A5.71,5.71,0,0,0,172.25,352.94Z"/><path class="cls-3" d="M189,352.94a5.71,5.71,0,1,0,5.71,5.7A5.71,5.71,0,0,0,189,352.94Z"/><path class="cls-2" d="M205.76,352.94a5.71,5.71,0,1,0,5.71,5.7A5.71,5.71,0,0,0,205.76,352.94Z"/><path class="cls-2" d="M222.52,352.94a5.71,5.71,0,1,0,5.7,5.7A5.71,5.71,0,0,0,222.52,352.94Z"/><path class="cls-2" d="M323.06,352.94a5.71,5.71,0,1,0,5.71,5.7A5.71,5.71,0,0,0,323.06,352.94Z"/><path class="cls-3" d="M339.82,352.94a5.71,5.71,0,1,0,5.7,5.7A5.71,5.71,0,0,0,339.82,352.94Z"/><path class="cls-2" d="M356.57,352.94a5.71,5.71,0,1,0,5.71,5.7A5.71,5.71,0,0,0,356.57,352.94Z"/><path class="cls-2" d="M373.33,352.94a5.71,5.71,0,1,0,5.71,5.7A5.71,5.71,0,0,0,373.33,352.94Z"/><path class="cls-2" d="M390.09,352.94a5.71,5.71,0,1,0,5.71,5.7A5.71,5.71,0,0,0,390.09,352.94Z"/><path class="cls-2" d="M323.06,369.69a5.71,5.71,0,1,0,5.71,5.71A5.71,5.71,0,0,0,323.06,369.69Z"/><path class="cls-2" d="M339.82,369.69a5.71,5.71,0,1,0,5.7,5.71A5.71,5.71,0,0,0,339.82,369.69Z"/><path class="cls-2" d="M356.57,369.69a5.71,5.71,0,1,0,5.71,5.71A5.71,5.71,0,0,0,356.57,369.69Z"/><path class="cls-2" d="M373.33,369.69A5.71,5.71,0,1,0,379,375.4,5.71,5.71,0,0,0,373.33,369.69Z"/><path class="cls-2" d="M373.33,386.45a5.71,5.71,0,1,0,5.71,5.71A5.71,5.71,0,0,0,373.33,386.45Z"/><rect class="cls-4" x="410.47" y="84.88" width="49.27" height="49.27"/><path class="cls-2" d="M426.72,95.43a5.71,5.71,0,1,0,5.71,5.71A5.72,5.72,0,0,0,426.72,95.43Z"/><path class="cls-2" d="M426.72,112.19a5.71,5.71,0,1,0,5.71,5.71A5.72,5.72,0,0,0,426.72,112.19Z"/><path class="cls-3" d="M443.48,112.19a5.71,5.71,0,1,0,5.71,5.71A5.71,5.71,0,0,0,443.48,112.19Z"/><path class="cls-3" d="M256,34.13a5.71,5.71,0,1,0,5.71,5.71A5.71,5.71,0,0,0,256,34.13Z"/></g></svg>