<svg xmlns="http://www.w3.org/2000/svg" width="820" height="820" viewBox="0 0 820 820"><defs><style>.cls-1{fill:#00415a;}.cls-2{fill:#005f87;}.cls-3{fill:#64b4dc;}</style></defs><g id="Outlinet_Tekst_UK_09.09.21"><path class="cls-1" d="M163.0115,593.5752a21.81,21.81,0,0,1-2.61,10.6494,19.1756,19.1756,0,0,1-7.29,7.5,20.44,20.44,0,0,1-10.5,2.7305,21.4624,21.4624,0,0,1-10.83-2.79,21.0057,21.0057,0,0,1-.06-36.42,20.9053,20.9053,0,0,1,10.6494-2.79,23.0333,23.0333,0,0,1,11.94,3.12,16.6217,16.6217,0,0,1,7.38,9l-7.32,2.58q-3.6591-7.021-12-7.02a12.49,12.49,0,0,0-6.48,1.74,12.6276,12.6276,0,0,0-4.65,4.8008,13.66,13.66,0,0,0-1.71,6.7793,13.4543,13.4543,0,0,0,1.77,6.81,12.7783,12.7783,0,0,0,4.8,4.83,13.3053,13.3053,0,0,0,6.75,1.7393,12.422,12.422,0,0,0,7.8-2.4893,11.6649,11.6649,0,0,0,4.26-6.81h-14.1v-7.44h22.0205Q163.0106,592.1348,163.0115,593.5752Z"/><path class="cls-1" d="M197.8709,600.7148h-22.8a8.8513,8.8513,0,0,0,2.67,5.07,6.9388,6.9388,0,0,0,4.83,1.8906,10.98,10.98,0,0,0,4.14-.75,7.1086,7.1086,0,0,0,3.3-3.211l7.08,1.5a14.4082,14.4082,0,0,1-5.6992,6.9,16.4106,16.4106,0,0,1-8.82,2.34,15.2412,15.2412,0,0,1-7.71-2.01,14.8765,14.8765,0,0,1-5.58-5.61,16.19,16.19,0,0,1-2.07-8.22,16.36,16.36,0,0,1,2.07-8.25,14.7606,14.7606,0,0,1,5.61-5.6406,15.5283,15.5283,0,0,1,7.8-2.01,14.8221,14.8221,0,0,1,7.41,1.95,15.064,15.064,0,0,1,5.55,5.4307,15.8993,15.8993,0,0,1,2.22,7.92Zm-19.7695-9.66a6.693,6.693,0,0,0-2.79,4.08h14.46a7.4179,7.4179,0,0,0-2.67-4.14,7.2819,7.2819,0,0,0-4.41-1.38A8.042,8.042,0,0,0,178.1014,591.0547Z"/><path class="cls-1" d="M225.6512,612.2354a21.6249,21.6249,0,0,1-4.08,1.71,13.5882,13.5882,0,0,1-3.7207.51q-5.5211,0-8.64-2.97-3.12-2.9707-3.12-8.97v-12.42h-6.42v-6.4805h6.42v-9.06h7.92v9.06h9.78v6.4805h-9.78V601.915a5.5832,5.5832,0,0,0,1.17,3.9,4.1655,4.1655,0,0,0,3.21,1.26,9.0253,9.0253,0,0,0,2.4-.39,12.17,12.17,0,0,0,2.58-1.0507Z"/><path class="cls-1" d="M274.25,583.5547l-12.4795,30h-8.4l-12.48-30h8.52l8.16,20.3408,8.16-20.3408Z"/><path class="cls-1" d="M308.2693,583.6152v29.94h-7.92v-2.34a15.2723,15.2723,0,0,1-9.9,3.24,13.9441,13.9441,0,0,1-7.23-2.01,14.87,14.87,0,0,1-5.43-5.6406,17.4573,17.4573,0,0,1,0-16.3789,15.1118,15.1118,0,0,1,5.43-5.6709,13.7947,13.7947,0,0,1,7.23-2.04,14.9485,14.9485,0,0,1,9.9,3.3008v-2.4Zm-12.3007,22.83a8.4362,8.4362,0,0,0,3.1806-3.15,9.0536,9.0536,0,0,0,1.2-4.68,9.22,9.22,0,0,0-1.2-4.71,8.4851,8.4851,0,0,0-7.32-4.29,8.0135,8.0135,0,0,0-6.03,2.46,9.03,9.03,0,0,0-2.3691,6.54,8.9215,8.9215,0,0,0,2.3691,6.51,8.062,8.062,0,0,0,6.03,2.43A8.3426,8.3426,0,0,0,295.9686,606.4453Z"/><path class="cls-1" d="M337.9686,601.375l7.32,1.86a13.9628,13.9628,0,0,1-5.4307,8.16,15.7534,15.7534,0,0,1-9.5693,3.06,16.4239,16.4239,0,0,1-8.04-2.01,15.2189,15.2189,0,0,1-5.82-5.61,15.6579,15.6579,0,0,1-2.16-8.22,15.8205,15.8205,0,0,1,2.16-8.25,15.1712,15.1712,0,0,1,5.82-5.6406,16.4347,16.4347,0,0,1,8.04-2.01,15.4181,15.4181,0,0,1,9.39,3.03,15.1036,15.1036,0,0,1,5.61,8.01l-7.62,2.16a7.7943,7.7943,0,0,0-2.7-4.5,7.58,7.58,0,0,0-4.68-1.44,7.9916,7.9916,0,0,0-6.03,2.4,8.6249,8.6249,0,0,0-2.31,6.24,8.5157,8.5157,0,0,0,2.31,6.21,8.0389,8.0389,0,0,0,6.03,2.37Q336.0486,607.1953,337.9686,601.375Z"/><path class="cls-1" d="M372.5887,601.375l7.32,1.86a13.9624,13.9624,0,0,1-5.4307,8.16,15.7532,15.7532,0,0,1-9.5693,3.06,16.4232,16.4232,0,0,1-8.04-2.01,15.2184,15.2184,0,0,1-5.82-5.61,15.6579,15.6579,0,0,1-2.16-8.22,15.8205,15.8205,0,0,1,2.16-8.25,15.1707,15.1707,0,0,1,5.82-5.6406,16.4341,16.4341,0,0,1,8.04-2.01,15.4181,15.4181,0,0,1,9.39,3.03,15.1036,15.1036,0,0,1,5.61,8.01l-7.62,2.16a7.7943,7.7943,0,0,0-2.7-4.5,7.58,7.58,0,0,0-4.68-1.44,7.9916,7.9916,0,0,0-6.03,2.4,8.6248,8.6248,0,0,0-2.3095,6.24,8.5157,8.5157,0,0,0,2.3095,6.21,8.0389,8.0389,0,0,0,6.03,2.37Q370.6687,607.1953,372.5887,601.375Z"/><path class="cls-1" d="M393.7088,571.3457a4.6019,4.6019,0,0,1,1.38,3.33,4.3748,4.3748,0,0,1-1.38,3.2988,5.1286,5.1286,0,0,1-6.87,0,4.4245,4.4245,0,0,1-1.35-3.2988,4.8154,4.8154,0,0,1,8.22-3.33Zm.54,42.209h-7.92v-29.94h7.92Z"/><path class="cls-1" d="M426.6785,584.3047a10.865,10.865,0,0,1,4.2305,4.4707,13.9609,13.9609,0,0,1,1.5,6.54v18.2393h-7.92v-16.56a7.5559,7.5559,0,0,0-1.65-5.1,5.5229,5.5229,0,0,0-4.41-1.9209,6.5385,6.5385,0,0,0-5.4892,2.52q-1.9512,2.521-1.95,7.8v13.26h-7.92v-29.94h7.92v2.7a12.737,12.737,0,0,1,9.42-3.6006A12.242,12.242,0,0,1,426.6785,584.3047Z"/><path class="cls-1" d="M470.1492,583.6152v29.94h-7.92v-2.34a15.2727,15.2727,0,0,1-9.9,3.24,13.9447,13.9447,0,0,1-7.23-2.01,14.87,14.87,0,0,1-5.43-5.6406,17.4573,17.4573,0,0,1,0-16.3789,15.1115,15.1115,0,0,1,5.43-5.6709,13.7953,13.7953,0,0,1,7.23-2.04,14.9485,14.9485,0,0,1,9.9,3.3008v-2.4Zm-12.3008,22.83a8.4358,8.4358,0,0,0,3.1807-3.15,9.0536,9.0536,0,0,0,1.2-4.68,9.22,9.22,0,0,0-1.2-4.71,8.4854,8.4854,0,0,0-7.32-4.29,8.0135,8.0135,0,0,0-6.03,2.46,9.0293,9.0293,0,0,0-2.3691,6.54,8.9211,8.9211,0,0,0,2.3691,6.51,8.062,8.062,0,0,0,6.03,2.43A8.342,8.342,0,0,0,457.8484,606.4453Z"/><path class="cls-1" d="M500.3289,612.2354a21.6222,21.6222,0,0,1-4.08,1.71,13.5882,13.5882,0,0,1-3.7207.51q-5.5209,0-8.64-2.97t-3.12-8.97v-12.42h-6.42v-6.4805h6.42v-9.06h7.92v9.06h9.78v6.4805h-9.78V601.915a5.5832,5.5832,0,0,0,1.17,3.9,4.1656,4.1656,0,0,0,3.21,1.26,9.0253,9.0253,0,0,0,2.4-.39,12.1694,12.1694,0,0,0,2.58-1.0507Z"/><path class="cls-1" d="M532.2479,600.7148h-22.8a8.8513,8.8513,0,0,0,2.67,5.07,6.9386,6.9386,0,0,0,4.83,1.8906,10.9791,10.9791,0,0,0,4.14-.75,7.1082,7.1082,0,0,0,3.3-3.211l7.08,1.5a14.4088,14.4088,0,0,1-5.6992,6.9,16.4109,16.4109,0,0,1-8.82,2.34,15.241,15.241,0,0,1-7.71-2.01,14.8774,14.8774,0,0,1-5.58-5.61,16.19,16.19,0,0,1-2.07-8.22,16.36,16.36,0,0,1,2.07-8.25,14.7609,14.7609,0,0,1,5.61-5.6406,15.5281,15.5281,0,0,1,7.8-2.01,14.822,14.822,0,0,1,7.41,1.95,15.0632,15.0632,0,0,1,5.55,5.4307,15.9,15.9,0,0,1,2.22,7.92Zm-19.77-9.66a6.6924,6.6924,0,0,0-2.79,4.08h14.46a7.418,7.418,0,0,0-2.67-4.14,7.2814,7.2814,0,0,0-4.41-1.38A8.0423,8.0423,0,0,0,512.4783,591.0547Z"/><path class="cls-1" d="M568.368,570.3555v43.1992h-7.92v-2.34a15.2727,15.2727,0,0,1-9.9,3.24,13.9444,13.9444,0,0,1-7.2305-2.01,14.87,14.87,0,0,1-5.43-5.6406,17.458,17.458,0,0,1,0-16.3789,15.1118,15.1118,0,0,1,5.43-5.6709,13.7951,13.7951,0,0,1,7.2305-2.04,14.9489,14.9489,0,0,1,9.9,3.3008v-15.66Zm-12.3008,36.09a8.4365,8.4365,0,0,0,3.1807-3.15,9.0536,9.0536,0,0,0,1.2-4.68,9.22,9.22,0,0,0-1.2-4.71,8.4854,8.4854,0,0,0-7.32-4.29,8.0133,8.0133,0,0,0-6.03,2.46,9.0293,9.0293,0,0,0-2.3692,6.54,8.9211,8.9211,0,0,0,2.3692,6.51,8.0618,8.0618,0,0,0,6.03,2.43A8.3421,8.3421,0,0,0,556.0672,606.4453Z"/><path class="cls-1" d="M621.4676,583.6152v29.94h-7.92v-2.34a15.2727,15.2727,0,0,1-9.9,3.24,13.9444,13.9444,0,0,1-7.2305-2.01,14.87,14.87,0,0,1-5.43-5.6406,17.458,17.458,0,0,1,0-16.3789,15.1118,15.1118,0,0,1,5.43-5.6709,13.7951,13.7951,0,0,1,7.2305-2.04,14.9489,14.9489,0,0,1,9.9,3.3008v-2.4Zm-12.3008,22.83a8.4365,8.4365,0,0,0,3.1807-3.15,9.0536,9.0536,0,0,0,1.2-4.68,9.22,9.22,0,0,0-1.2-4.71,8.4854,8.4854,0,0,0-7.32-4.29,8.0133,8.0133,0,0,0-6.03,2.46,9.0293,9.0293,0,0,0-2.3692,6.54,8.9211,8.9211,0,0,0,2.3692,6.51,8.0619,8.0619,0,0,0,6.03,2.43A8.342,8.342,0,0,0,609.1668,606.4453Z"/><path class="cls-1" d="M653.4764,584.3047a10.8647,10.8647,0,0,1,4.23,4.4707,13.96,13.96,0,0,1,1.5,6.54v18.2393h-7.92v-16.56a7.5559,7.5559,0,0,0-1.65-5.1,5.5228,5.5228,0,0,0-4.41-1.9209,6.5386,6.5386,0,0,0-5.4893,2.52q-1.9512,2.521-1.95,7.8v13.26h-7.92v-29.94h7.92v2.7a12.7372,12.7372,0,0,1,9.42-3.6006A12.2424,12.2424,0,0,1,653.4764,584.3047Z"/><path class="cls-1" d="M696.9471,570.3555v43.1992h-7.92v-2.34a15.2727,15.2727,0,0,1-9.9,3.24,13.9444,13.9444,0,0,1-7.2305-2.01,14.87,14.87,0,0,1-5.43-5.6406,17.458,17.458,0,0,1,0-16.3789,15.1118,15.1118,0,0,1,5.43-5.6709,13.7951,13.7951,0,0,1,7.2305-2.04,14.9489,14.9489,0,0,1,9.9,3.3008v-15.66Zm-12.3008,36.09a8.4365,8.4365,0,0,0,3.1807-3.15,9.0536,9.0536,0,0,0,1.2-4.68,9.22,9.22,0,0,0-1.2-4.71,8.4854,8.4854,0,0,0-7.32-4.29,8.0133,8.0133,0,0,0-6.03,2.46,9.0293,9.0293,0,0,0-2.3692,6.54,8.9211,8.9211,0,0,0,2.3692,6.51,8.0619,8.0619,0,0,0,6.03,2.43A8.342,8.342,0,0,0,684.6463,606.4453Z"/><path class="cls-1" d="M239.42,655.4355l-.42,7.6192h-1.74q-10.68,0-10.68,12.8408v9.6592h-7.92v-29.94h7.92v5.46q4.08-5.88,10.74-5.88A7.0061,7.0061,0,0,1,239.42,655.4355Z"/><path class="cls-1" d="M272.3592,672.7148h-22.8a8.8513,8.8513,0,0,0,2.67,5.07,6.9388,6.9388,0,0,0,4.83,1.8906,10.9791,10.9791,0,0,0,4.14-.75,7.1077,7.1077,0,0,0,3.3-3.211l7.08,1.5a14.4088,14.4088,0,0,1-5.6992,6.9,16.4106,16.4106,0,0,1-8.82,2.34,15.2412,15.2412,0,0,1-7.71-2.01,14.8774,14.8774,0,0,1-5.58-5.61,16.1914,16.1914,0,0,1-2.07-8.22,16.361,16.361,0,0,1,2.07-8.25,14.7615,14.7615,0,0,1,5.61-5.6406,15.5283,15.5283,0,0,1,7.8-2.01,14.8221,14.8221,0,0,1,7.41,1.95,15.064,15.064,0,0,1,5.55,5.4307,15.9,15.9,0,0,1,2.22,7.92Zm-19.7695-9.66a6.693,6.693,0,0,0-2.79,4.08h14.46a7.4179,7.4179,0,0,0-2.67-4.14,7.2819,7.2819,0,0,0-4.41-1.38A8.042,8.042,0,0,0,252.59,663.0547Z"/><path class="cls-1" d="M307.22,655.5547l-12.4795,30h-8.4l-12.4805-30H282.38l8.16,20.3408,8.16-20.3408Z"/><path class="cls-1" d="M341.2391,655.6152v29.94h-7.92v-2.34a15.2727,15.2727,0,0,1-9.9,3.24,13.9444,13.9444,0,0,1-7.23-2.01,14.87,14.87,0,0,1-5.43-5.6406,17.458,17.458,0,0,1,0-16.3789,15.1118,15.1118,0,0,1,5.43-5.6709,13.7951,13.7951,0,0,1,7.23-2.04,14.9489,14.9489,0,0,1,9.9,3.3008v-2.4Zm-12.3008,22.83a8.4365,8.4365,0,0,0,3.1807-3.15,9.0536,9.0536,0,0,0,1.2-4.68,9.22,9.22,0,0,0-1.2-4.71,8.4854,8.4854,0,0,0-7.32-4.29,8.0131,8.0131,0,0,0-6.03,2.46,9.0293,9.0293,0,0,0-2.3692,6.54,8.9211,8.9211,0,0,0,2.3692,6.51,8.0616,8.0616,0,0,0,6.03,2.43A8.3421,8.3421,0,0,0,328.9383,678.4453Z"/><path class="cls-1" d="M370.9383,673.375l7.32,1.86a13.9624,13.9624,0,0,1-5.4307,8.16,15.7532,15.7532,0,0,1-9.5693,3.06,16.4232,16.4232,0,0,1-8.04-2.01,15.2175,15.2175,0,0,1-5.82-5.61,15.657,15.657,0,0,1-2.16-8.22,15.82,15.82,0,0,1,2.16-8.25,15.17,15.17,0,0,1,5.82-5.6406,16.4341,16.4341,0,0,1,8.04-2.01,15.4186,15.4186,0,0,1,9.39,3.03,15.104,15.104,0,0,1,5.61,8.01l-7.62,2.16a7.7943,7.7943,0,0,0-2.7-4.5,7.58,7.58,0,0,0-4.68-1.44,7.9916,7.9916,0,0,0-6.03,2.4,8.6248,8.6248,0,0,0-2.31,6.24,8.5157,8.5157,0,0,0,2.31,6.21,8.0389,8.0389,0,0,0,6.03,2.37Q369.0183,679.1953,370.9383,673.375Z"/><path class="cls-1" d="M405.5584,673.375l7.32,1.86a13.9627,13.9627,0,0,1-5.4306,8.16,15.7537,15.7537,0,0,1-9.5694,3.06,16.4232,16.4232,0,0,1-8.04-2.01,15.2182,15.2182,0,0,1-5.82-5.61,15.657,15.657,0,0,1-2.16-8.22,15.82,15.82,0,0,1,2.16-8.25,15.17,15.17,0,0,1,5.82-5.6406,16.4341,16.4341,0,0,1,8.04-2.01,15.4184,15.4184,0,0,1,9.39,3.03,15.104,15.104,0,0,1,5.61,8.01l-7.62,2.16a7.7943,7.7943,0,0,0-2.7-4.5,7.58,7.58,0,0,0-4.68-1.44,7.9917,7.9917,0,0,0-6.03,2.4,8.6248,8.6248,0,0,0-2.31,6.24,8.5157,8.5157,0,0,0,2.31,6.21,8.0391,8.0391,0,0,0,6.03,2.37Q403.6386,679.1953,405.5584,673.375Z"/><path class="cls-1" d="M426.6785,643.3457a4.6019,4.6019,0,0,1,1.38,3.33,4.3748,4.3748,0,0,1-1.38,3.2988,5.1286,5.1286,0,0,1-6.87,0,4.4245,4.4245,0,0,1-1.35-3.2988,4.8154,4.8154,0,0,1,8.22-3.33Zm.54,42.209h-7.92v-29.94h7.92Z"/><path class="cls-1" d="M459.6483,656.3047a10.8647,10.8647,0,0,1,4.23,4.4707,13.9609,13.9609,0,0,1,1.5,6.54v18.2393h-7.92v-16.56a7.5559,7.5559,0,0,0-1.65-5.1,5.5228,5.5228,0,0,0-4.41-1.9209,6.5386,6.5386,0,0,0-5.4893,2.52q-1.9512,2.521-1.95,7.8v13.26h-7.92v-29.94h7.92v2.7a12.737,12.737,0,0,1,9.42-3.6006A12.2427,12.2427,0,0,1,459.6483,656.3047Z"/><path class="cls-1" d="M503.119,655.6152v29.94h-7.92v-2.34a15.2723,15.2723,0,0,1-9.9,3.24,13.9441,13.9441,0,0,1-7.23-2.01,14.87,14.87,0,0,1-5.43-5.6406,17.4573,17.4573,0,0,1,0-16.3789,15.1118,15.1118,0,0,1,5.43-5.6709,13.7947,13.7947,0,0,1,7.23-2.04,14.9485,14.9485,0,0,1,9.9,3.3008v-2.4Zm-12.3008,22.83a8.4355,8.4355,0,0,0,3.1806-3.15,9.0536,9.0536,0,0,0,1.2-4.68,9.22,9.22,0,0,0-1.2-4.71,8.4851,8.4851,0,0,0-7.32-4.29,8.0131,8.0131,0,0,0-6.03,2.46,9.0293,9.0293,0,0,0-2.3692,6.54,8.9211,8.9211,0,0,0,2.3692,6.51,8.0616,8.0616,0,0,0,6.03,2.43A8.3424,8.3424,0,0,0,490.8182,678.4453Z"/><path class="cls-1" d="M533.2986,684.2354a21.6216,21.6216,0,0,1-4.08,1.71,13.5887,13.5887,0,0,1-3.7207.51q-5.521,0-8.64-2.97-3.12-2.9707-3.12-8.97v-12.42h-6.42v-6.4805h6.42v-9.06h7.92v9.06h9.78v6.4805h-9.78V673.915a5.5832,5.5832,0,0,0,1.17,3.9,4.1656,4.1656,0,0,0,3.21,1.26,9.0253,9.0253,0,0,0,2.4-.39,12.1724,12.1724,0,0,0,2.58-1.0507Z"/><path class="cls-1" d="M565.2176,672.7148h-22.8a8.8513,8.8513,0,0,0,2.67,5.07,6.9388,6.9388,0,0,0,4.83,1.8906,10.9791,10.9791,0,0,0,4.14-.75,7.1077,7.1077,0,0,0,3.3-3.211l7.08,1.5a14.4088,14.4088,0,0,1-5.6992,6.9,16.4106,16.4106,0,0,1-8.82,2.34,15.2412,15.2412,0,0,1-7.71-2.01,14.8774,14.8774,0,0,1-5.58-5.61,16.1914,16.1914,0,0,1-2.07-8.22,16.361,16.361,0,0,1,2.07-8.25,14.7615,14.7615,0,0,1,5.61-5.6406,15.5283,15.5283,0,0,1,7.8-2.01,14.8223,14.8223,0,0,1,7.41,1.95,15.064,15.064,0,0,1,5.55,5.4307,15.9,15.9,0,0,1,2.22,7.92Zm-19.7695-9.66a6.693,6.693,0,0,0-2.79,4.08h14.46a7.4179,7.4179,0,0,0-2.67-4.14,7.2819,7.2819,0,0,0-4.41-1.38A8.042,8.042,0,0,0,545.4481,663.0547Z"/><path class="cls-1" d="M601.3377,642.3555v43.1992h-7.92v-2.34a15.2727,15.2727,0,0,1-9.9,3.24,13.9444,13.9444,0,0,1-7.2305-2.01,14.8709,14.8709,0,0,1-5.43-5.6406,17.458,17.458,0,0,1,0-16.3789,15.1125,15.1125,0,0,1,5.43-5.6709,13.7951,13.7951,0,0,1,7.2305-2.04,14.9485,14.9485,0,0,1,9.9,3.3008v-15.66Zm-12.3008,36.09a8.4365,8.4365,0,0,0,3.1807-3.15,9.0536,9.0536,0,0,0,1.2-4.68,9.22,9.22,0,0,0-1.2-4.71,8.4854,8.4854,0,0,0-7.32-4.29,8.0133,8.0133,0,0,0-6.03,2.46,9.0293,9.0293,0,0,0-2.3691,6.54,8.9211,8.9211,0,0,0,2.3691,6.51,8.0619,8.0619,0,0,0,6.03,2.43A8.342,8.342,0,0,0,589.0369,678.4453Z"/></g><g id="Outlinet_ikoner" data-name="Outlinet ikoner"><path class="cls-2" d="M329.0428,425.6824c-16.5821,0-34.3067-7.1641-48.1983-21.0567-11.8349-11.8349-19.2256-26.8008-20.8095-42.1416-1.6514-15.9951,3.1338-30.498,13.4746-40.8388L451.9129,143.241l90.3164,90.3164L363.824,411.9607C354.6043,421.18,342.1814,425.6824,329.0428,425.6824Zm122.87-258.5567L285.451,333.5876c-6.6758,6.6758-9.7354,16.3223-8.6162,27.1612,1.1865,11.4941,6.8515,22.8349,15.9511,31.9355,18.3155,18.3145,44.8262,21.6055,59.0967,7.335L518.3445,233.5574Z"/><rect class="cls-3" x="191.533" y="439.4582" width="92.0703" height="16.8877" transform="translate(-247.1325 299.1735) rotate(-45)"/><polygon class="cls-3" points="528.164 196.282 516.222 184.341 568.392 132.17 553.301 117.077 501.13 169.247 489.188 157.305 553.301 93.192 592.277 132.17 528.164 196.282"/><rect class="cls-3" x="560.6565" y="51.623" width="16.8877" height="129.779" transform="translate(84.2989 436.5405) rotate(-45)"/><path class="cls-2" d="M329.117,425.7546a59.6713,59.6713,0,0,1-6.1309-.3193c-15.3408-1.584-30.3066-8.9746-42.1416-20.81s-19.2256-26.8-20.8095-42.1416c-1.6514-15.9951,3.1338-30.498,13.4746-40.8388L451.9129,143.2419l90.3164,90.3155L363.825,411.9607C354.823,420.9626,342.6658,425.7546,329.117,425.7546ZM451.9129,167.1267,285.451,333.5876c-6.6758,6.6758-9.7354,16.3223-8.6162,27.1622,1.1865,11.4931,6.8515,22.8349,15.9511,31.9335,9.1006,9.1006,20.4414,14.7657,31.9356,15.9522,10.832,1.12,20.4853-1.94,27.16-8.6162h.001L518.3445,233.5574Z"/><rect class="cls-3" x="191.533" y="439.4582" width="92.0703" height="16.8877" transform="translate(-247.1325 299.1735) rotate(-45)"/><polygon class="cls-3" points="528.164 196.282 516.222 184.341 568.392 132.17 553.301 117.078 501.13 169.248 489.188 157.306 553.301 93.193 592.277 132.17 528.164 196.282"/><rect class="cls-3" x="560.6565" y="51.623" width="16.8877" height="129.779" transform="translate(84.2989 436.5405) rotate(-45)"/></g></svg>