<svg xmlns="http://www.w3.org/2000/svg" width="141.9823" height="141.9823" viewBox="0 0 141.9823 141.9823"><defs><style>.cls-1{fill:#a0d2eb;}.cls-2{fill:#fff;}</style></defs><g id="Ikoner_negativ_outline"><path class="cls-1" d="M98.9864,98.009,96.123,95.4328a32.5511,32.5511,0,0,1-18.2457,11.002,7.228,7.228,0,1,0,.3988,3.8525A36.3911,36.3911,0,0,0,98.9864,98.009ZM71.1589,112.4546a3.375,3.375,0,1,1,3.375-3.375A3.3787,3.3787,0,0,1,71.1589,112.4546Z"/><path class="cls-2" d="M107.543,60.3369a36.5282,36.5282,0,0,0-72.99-.0419,13.5866,13.5866,0,0,0-9.471,12.93v4.1337A13.58,13.58,0,0,0,38.6467,90.9233H41.758a5.8181,5.8181,0,0,0,5.811-5.8115V65.4712a5.8174,5.8174,0,0,0-5.811-5.8106H38.6467c-.0672,0-.1321.009-.1991.01a32.6742,32.6742,0,0,1,65.2.0059c-.1047-.0025-.2068-.0159-.3123-.0159h-3.1113a5.8174,5.8174,0,0,0-5.811,5.8106V85.1118a5.8181,5.8181,0,0,0,5.811,5.8115h3.1113A13.58,13.58,0,0,0,116.9,77.3588V73.2251A13.5824,13.5824,0,0,0,107.543,60.3369ZM41.758,63.5122a1.9614,1.9614,0,0,1,1.9595,1.959V85.1118a1.9616,1.9616,0,0,1-1.9595,1.96H38.6467a9.7242,9.7242,0,0,1-9.7129-9.7129V73.2251a9.7242,9.7242,0,0,1,9.7129-9.7129Zm71.2905,13.8466a9.7242,9.7242,0,0,1-9.7129,9.7129h-3.1113a1.9616,1.9616,0,0,1-1.96-1.96V65.4712a1.9614,1.9614,0,0,1,1.96-1.959h3.1113a9.7242,9.7242,0,0,1,9.7129,9.7129Z"/></g></svg>