<svg id="Layer_1" data-name="Layer 1" xmlns="http://www.w3.org/2000/svg" width="844.39" height="144.06" viewBox="0 0 844.39 144.06"><defs><style>.cls-1{fill:#00415a;}</style></defs><path class="cls-1" d="M85.86,85.53l11.89,3a22.68,22.68,0,0,1-8.82,13.26,25.63,25.63,0,0,1-15.55,5A25.76,25.76,0,0,1,54.9,99.57Q47.34,92.36,47.34,81T54.9,62.47A25.64,25.64,0,0,1,73.38,55.2a25,25,0,0,1,15.26,4.93,24.49,24.49,0,0,1,9.11,13L85.37,76.65Q82.94,67,73.38,67a13,13,0,0,0-9.8,3.9A14,14,0,0,0,59.82,81a13.84,13.84,0,0,0,3.76,10.09A13.06,13.06,0,0,0,73.38,95Q82.74,95,85.86,85.53Z" transform="translate(-2.93 -2.94)"/><path class="cls-1" d="M146.52,62.66q7.65,7.17,7.65,18.38t-7.65,18.38a26.21,26.21,0,0,1-18.58,7.17,26.61,26.61,0,0,1-18.82-7.17q-7.7-7.17-7.7-18.38t7.7-18.38a26.61,26.61,0,0,1,18.82-7.16A26.2,26.2,0,0,1,146.52,62.66Zm-9,28.86A13.92,13.92,0,0,0,141.69,81a13.94,13.94,0,0,0-4.19-10.48,13.39,13.39,0,0,0-9.56-4A14.08,14.08,0,0,0,113.9,81a14.08,14.08,0,0,0,14,14.53A13.39,13.39,0,0,0,137.5,91.52Z" transform="translate(-2.93 -2.94)"/><path class="cls-1" d="M195.26,56.37l-.68,12.39h-2.83q-17.35,0-17.36,20.86v15.7H161.52V56.67h12.87v8.87Q181,56,191.85,56A11.4,11.4,0,0,1,195.26,56.37Z" transform="translate(-2.93 -2.94)"/><path class="cls-1" d="M242.12,62.66q7.65,7.17,7.65,18.38t-7.65,18.38a26.17,26.17,0,0,1-18.57,7.17,26.6,26.6,0,0,1-18.82-7.17Q197,92.25,197,81t7.71-18.38a26.59,26.59,0,0,1,18.82-7.16A26.16,26.16,0,0,1,242.12,62.66Zm-9,28.86A13.88,13.88,0,0,0,237.29,81a13.9,13.9,0,0,0-4.19-10.48,13.37,13.37,0,0,0-9.55-4,14.08,14.08,0,0,0-14,14.53,14.08,14.08,0,0,0,14,14.53A13.37,13.37,0,0,0,233.1,91.52Z" transform="translate(-2.93 -2.94)"/><path class="cls-1" d="M299.44,60.91q5.37,5.7,5.37,14.77v29.64H291.94V78.41a12.31,12.31,0,0,0-2.68-8.29A9,9,0,0,0,282.09,67Q270,67,270,83.77v21.55H257.13V56.67H270v4.38q5.85-5.85,15.31-5.85Q294.09,55.2,299.44,60.91Z" transform="translate(-2.93 -2.94)"/><path class="cls-1" d="M364.18,105.32H351.31v-3.8q-6.54,5.27-16.09,5.26a22.65,22.65,0,0,1-16.77-7.31q-7.12-7.32-7.12-18.43t7.17-18.48a22.64,22.64,0,0,1,16.72-7.36q9.66,0,16.09,5.37v-3.9h12.87Zm-17.06-13.8A13.92,13.92,0,0,0,351.31,81a14.09,14.09,0,0,0-4.19-10.53,13.44,13.44,0,0,0-9.66-4.09,13,13,0,0,0-9.8,4q-3.84,4-3.85,10.63t3.85,10.58a13.13,13.13,0,0,0,9.8,3.95A13.52,13.52,0,0,0,347.12,91.52Z" transform="translate(-2.93 -2.94)"/><path class="cls-1" d="M475.24,85.53l11.89,3a22.68,22.68,0,0,1-8.82,13.26,27.07,27.07,0,0,1-34-2.24q-7.56-7.21-7.56-18.53t7.56-18.57a25.64,25.64,0,0,1,18.48-7.27A25,25,0,0,1,478,60.13a24.49,24.49,0,0,1,9.11,13l-12.38,3.51q-2.44-9.65-12-9.65a13,13,0,0,0-9.8,3.9A14,14,0,0,0,449.21,81,13.84,13.84,0,0,0,453,91.13a13.06,13.06,0,0,0,9.8,3.85Q472.12,95,475.24,85.53Z" transform="translate(-2.93 -2.94)"/><path class="cls-1" d="M535.89,62.66q7.67,7.17,7.66,18.38t-7.66,18.38a26.17,26.17,0,0,1-18.57,7.17,26.61,26.61,0,0,1-18.82-7.17q-7.69-7.17-7.7-18.38t7.7-18.38a26.61,26.61,0,0,1,18.82-7.16A26.16,26.16,0,0,1,535.89,62.66Zm-9,28.86A13.92,13.92,0,0,0,531.07,81a13.94,13.94,0,0,0-4.19-10.48,13.39,13.39,0,0,0-9.56-4,14.08,14.08,0,0,0-14,14.53,14.08,14.08,0,0,0,14,14.53A13.39,13.39,0,0,0,526.88,91.52Z" transform="translate(-2.93 -2.94)"/><path class="cls-1" d="M576.84,105.32H563.19L542.91,56.57h13.84L570,89.62l13.27-33.05h13.84Z" transform="translate(-2.93 -2.94)"/><path class="cls-1" d="M614.39,36.73a7.48,7.48,0,0,1,2.24,5.41,7.13,7.13,0,0,1-2.24,5.36,8.33,8.33,0,0,1-11.17,0A7.2,7.2,0,0,1,601,42.14a7.82,7.82,0,0,1,13.36-5.41Zm-12,68.59V56.67h12.87v48.65Z" transform="translate(-2.93 -2.94)"/><path class="cls-1" d="M675.9,105.32H663v-3.8q-6.54,5.27-16.09,5.26a22.65,22.65,0,0,1-16.77-7.31Q623,92.15,623.05,81t7.17-18.48a22.64,22.64,0,0,1,16.72-7.36q9.64,0,16.09,5.37V35.12H675.9Zm-17.06-13.8A13.92,13.92,0,0,0,663,81a14.09,14.09,0,0,0-4.19-10.53,13.44,13.44,0,0,0-9.66-4.09,13,13,0,0,0-9.8,4q-3.86,4-3.85,10.63t3.85,10.58a13.13,13.13,0,0,0,9.8,3.95A13.52,13.52,0,0,0,658.84,91.52Z" transform="translate(-2.93 -2.94)"/><path class="cls-1" d="M683.88,86V74.9h25.21V86Z" transform="translate(-2.93 -2.94)"/><path class="cls-1" d="M790.58,47.3q7.26,8.79,7.26,24.38,0,18.52-8.77,27.59a24.42,24.42,0,0,1-18.24,7.51,24.67,24.67,0,0,1-14.28-4,19.77,19.77,0,0,1-7.95-11.46l12.68-2.44q2,6.34,10,6.34a12.09,12.09,0,0,0,9.17-4.1q5-5.35,5-15.3-6,6.52-15.6,6.53-10.44,0-16.63-6T747,60.76a20.85,20.85,0,0,1,6.73-15.94q6.72-6.28,17.26-6.29Q783.32,38.53,790.58,47.3Zm-11.8,21.21A10.14,10.14,0,0,0,782,60.76a9.78,9.78,0,0,0-3.17-7.51,10.63,10.63,0,0,0-7.46-2.92,11.09,11.09,0,0,0-7.7,3A9.85,9.85,0,0,0,760.3,61a9.7,9.7,0,0,0,3.32,7.55,11.18,11.18,0,0,0,7.7,3A10.56,10.56,0,0,0,778.78,68.51Z" transform="translate(-2.93 -2.94)"/><polygon class="cls-1" points="47.47 144.06 0 144.06 0 96.74 12.19 96.74 12.19 132.61 47.47 132.61 47.47 144.06"/><polygon class="cls-1" points="47.48 0 0 0 0 47.32 12.19 47.32 12.19 11.48 47.48 11.48 47.48 0"/><polygon class="cls-1" points="796.92 144.06 844.39 144.06 844.39 96.74 832.21 96.74 832.21 132.61 796.92 132.61 796.92 144.06"/><polygon class="cls-1" points="796.92 0 844.39 0 844.39 47.32 832.21 47.32 832.21 11.46 796.92 11.46 796.92 0"/><rect class="cls-1" x="394.72" y="22.07" width="11.1" height="106.58"/><path class="cls-1" d="M737.75,105.32H724.88V55.5l-16.09,8.28V52l20.77-12h8.19Z" transform="translate(-2.93 -2.94)"/></svg>