<svg xmlns="http://www.w3.org/2000/svg" width="820" height="820" viewBox="0 0 820 820"><defs><style>.cls-1{fill:#00415a;}.cls-2,.cls-3{fill:none;stroke-miterlimit:10;stroke-width:16px;}.cls-2{stroke:#005f87;}.cls-3{stroke:#64b4dc;}</style></defs><g id="Outlinet_Tekst_UK_09.09.21"><path class="cls-1" d="M179.835,575.0372a19.8355,19.8355,0,0,1,7.2959,7.2676,19.8673,19.8673,0,0,1-7.2959,27.3027,20.7452,20.7452,0,0,1-20.292,0,19.6757,19.6757,0,0,1-7.2959-7.2109,20.1768,20.1768,0,0,1,0-20.0918,20.3546,20.3546,0,0,1,27.5879-7.2676Zm-3.9043,28.3a11.7673,11.7673,0,0,0,4.4463-4.5029,12.9279,12.9279,0,0,0,1.624-6.47,13.0864,13.0864,0,0,0-1.624-6.4971,11.9265,11.9265,0,0,0-4.4463-4.5605,12.6081,12.6081,0,0,0-12.4834,0,11.9226,11.9226,0,0,0-4.4453,4.5605,13.086,13.086,0,0,0-1.625,6.4971,12.9275,12.9275,0,0,0,1.625,6.47,11.7634,11.7634,0,0,0,4.4453,4.5029,12.8,12.8,0,0,0,12.4834,0Z"/><path class="cls-1" d="M219.877,584.0431a14.37,14.37,0,0,1,5.1591,5.3867,16.59,16.59,0,0,1,0,15.5606,14.1375,14.1375,0,0,1-5.1591,5.3574,13.2424,13.2424,0,0,1-6.8682,1.91,14.5081,14.5081,0,0,1-9.4053-3.0781v13.6231H196.08V582.9591h7.5234v2.28a14.2031,14.2031,0,0,1,9.4053-3.1348A13.1,13.1,0,0,1,219.877,584.0431Zm-2.45,19.3516a8.4823,8.4823,0,0,0,2.2509-6.1856,8.5835,8.5835,0,0,0-2.2509-6.2129,7.6185,7.6185,0,0,0-5.7286-2.3359,8.0569,8.0569,0,0,0-6.9541,4.0752,8.7489,8.7489,0,0,0-1.1406,4.4736,8.5932,8.5932,0,0,0,1.1406,4.4463,8.1126,8.1126,0,0,0,6.9541,4.0479A7.6621,7.6621,0,0,0,217.4268,603.3947Z"/><path class="cls-1" d="M259.5205,599.2052H237.86a8.412,8.412,0,0,0,2.5371,4.8164,6.5913,6.5913,0,0,0,4.5879,1.7949,10.4026,10.4026,0,0,0,3.9335-.7129,6.75,6.75,0,0,0,3.1348-3.0488l6.7256,1.4248a13.6837,13.6837,0,0,1-5.415,6.5557,15.5947,15.5947,0,0,1-8.3789,2.2226,14.475,14.475,0,0,1-7.3243-1.91,14.1277,14.1277,0,0,1-5.3007-5.3291,15.3747,15.3747,0,0,1-1.9668-7.81,15.5357,15.5357,0,0,1,1.9668-7.8369,14.0171,14.0171,0,0,1,5.3291-5.3584,14.7506,14.7506,0,0,1,7.41-1.9092,14.0823,14.0823,0,0,1,7.0391,1.8526,14.2981,14.2981,0,0,1,5.2724,5.1582,15.0955,15.0955,0,0,1,2.1094,7.5244Zm-18.7812-9.1777a6.3565,6.3565,0,0,0-2.65,3.8759h13.7363a7.0422,7.0422,0,0,0-2.5361-3.9326A6.9154,6.9154,0,0,0,245.1,588.66,7.6331,7.6331,0,0,0,240.7393,590.0275Z"/><path class="cls-1" d="M287.65,583.6154a10.3234,10.3234,0,0,1,4.0185,4.2461,13.26,13.26,0,0,1,1.4248,6.2128v17.3282h-7.5244V595.671a7.1766,7.1766,0,0,0-1.5673-4.8447,5.2458,5.2458,0,0,0-4.19-1.8242,6.2137,6.2137,0,0,0-5.2158,2.3935q-1.8531,2.3951-1.8526,7.41v12.5967h-7.5234V582.9591h7.5234v2.5654a12.1016,12.1016,0,0,1,8.9493-3.42A11.623,11.623,0,0,1,287.65,583.6154Z"/><path class="cls-1" d="M354.4824,582.9591l-9.4619,28.5h-6.7832l-5.5859-16.7578-5.6426,16.7578h-6.7832l-9.4619-28.5h7.4668l5.6425,17.5,5.8145-17.5h5.8711l5.8135,17.5567,5.6435-17.5567Z"/><path class="cls-1" d="M366.4521,571.3029a4.378,4.378,0,0,1,1.3106,3.164,4.1613,4.1613,0,0,1-1.3106,3.1348,4.8742,4.8742,0,0,1-6.5273,0,4.2058,4.2058,0,0,1-1.2822-3.1348,4.5758,4.5758,0,0,1,7.8095-3.164Zm.5127,40.1H359.44V582.9591h7.5244Z"/><path class="cls-1" d="M397.7734,583.6154a10.3236,10.3236,0,0,1,4.0186,4.2461,13.2614,13.2614,0,0,1,1.4248,6.2128v17.3282h-7.5244V595.671a7.1767,7.1767,0,0,0-1.5674-4.8447,5.2458,5.2458,0,0,0-4.19-1.8242,6.2138,6.2138,0,0,0-5.2158,2.3935q-1.8529,2.3951-1.8525,7.41v12.5967h-7.5235V582.9591h7.5235v2.5654a12.1015,12.1015,0,0,1,8.9492-3.42A11.6225,11.6225,0,0,1,397.7734,583.6154Z"/><path class="cls-1" d="M439.0693,570.3624v41.04h-7.5234V609.18a14.51,14.51,0,0,1-9.4053,3.0781,13.2418,13.2418,0,0,1-6.8681-1.91,14.1132,14.1132,0,0,1-5.1582-5.3574,16.5826,16.5826,0,0,1,0-15.5606,14.3445,14.3445,0,0,1,5.1582-5.3867,13.0989,13.0989,0,0,1,6.8681-1.9385,14.2012,14.2012,0,0,1,9.4053,3.1348v-14.877Zm-11.6845,34.2862a8.0128,8.0128,0,0,0,3.0214-2.9932,8.6111,8.6111,0,0,0,1.14-4.4463,8.7672,8.7672,0,0,0-1.14-4.4736,8.06,8.06,0,0,0-6.9541-4.0752,7.6138,7.6138,0,0,0-5.7285,2.3359,8.5761,8.5761,0,0,0-2.2519,6.2129,8.475,8.475,0,0,0,2.2519,6.1856,7.6574,7.6574,0,0,0,5.7285,2.3086A7.9318,7.9318,0,0,0,427.3848,604.6486Z"/><path class="cls-1" d="M467.94,584.1564a14.41,14.41,0,0,1,5.586,5.3008,15.487,15.487,0,0,1,0,15.5048,14.4027,14.4027,0,0,1-5.586,5.3008,15.9616,15.9616,0,0,1-7.667,1.8809,16.4022,16.4022,0,0,1-7.78-1.8809A14.3546,14.3546,0,0,1,446.85,604.99a15.5906,15.5906,0,0,1,0-15.5606,14.3643,14.3643,0,0,1,5.6436-5.2734,16.4022,16.4022,0,0,1,7.78-1.8809A15.9616,15.9616,0,0,1,467.94,584.1564Zm-3.8193,20.4922a8.6093,8.6093,0,0,0,0-14.877,7.6755,7.6755,0,0,0-3.8477-1.0547,8.2136,8.2136,0,0,0-3.99,1.0254,8.002,8.002,0,0,0-3.0488,2.9649,9.2569,9.2569,0,0,0,0,9.0058,7.9993,7.9993,0,0,0,3.0488,2.9639,8.2147,8.2147,0,0,0,3.99,1.0264A7.6755,7.6755,0,0,0,464.1211,604.6486Z"/><path class="cls-1" d="M521.3213,582.9591l-9.4619,28.5h-6.7832l-5.586-16.7578-5.6425,16.7578h-6.7832l-9.462-28.5h7.4668l5.6426,17.5,5.8145-17.5h5.8711l5.8134,17.5567,5.6436-17.5567Z"/><path class="cls-1" d="M532.92,605.3038a7.9092,7.9092,0,0,0,4.0186.9121,5.7872,5.7872,0,0,0,3.249-.7978,2.3879,2.3879,0,0,0,1.1973-2.0527q0-1.8809-3.1348-2.5645l-5.8145-1.1973a11.34,11.34,0,0,1-5.956-2.9072,7.0961,7.0961,0,0,1-2.0811-5.1865,8.5827,8.5827,0,0,1,1.4248-4.874,9.42,9.42,0,0,1,4.0479-3.334,14.6985,14.6985,0,0,1,6.1553-1.1973,14.102,14.102,0,0,1,8.2939,2.3369,9.4938,9.4938,0,0,1,4.0752,6.1l-7.1816,1.4248a4.0826,4.0826,0,0,0-1.6817-2.8505,6.0924,6.0924,0,0,0-3.7334-1.083,4.35,4.35,0,0,0-2.9638.8271,2.5674,2.5674,0,0,0-.9121,1.9668,2.159,2.159,0,0,0,.5126,1.4531,3.8168,3.8168,0,0,0,2.0518.9405l6.7832,1.4814a10.1056,10.1056,0,0,1,5.5576,2.9355,7.4046,7.4046,0,0,1,1.9092,5.1016,8.1865,8.1865,0,0,1-3.3916,7.0684q-3.391,2.4492-9.0908,2.4511a17.0066,17.0066,0,0,1-8.6641-2.081,8.0106,8.0106,0,0,1-4.1045-6.2979l7.5811-1.539A3.818,3.818,0,0,0,532.92,605.3038Z"/><path class="cls-1" d="M597.0156,582.9591v28.4434h-7.5234V609.18a14.51,14.51,0,0,1-9.4053,3.0781,13.2424,13.2424,0,0,1-6.8682-1.91,14.1147,14.1147,0,0,1-5.1582-5.3574,16.5834,16.5834,0,0,1,0-15.5606,14.346,14.346,0,0,1,5.1582-5.3867,13.1,13.1,0,0,1,6.8682-1.9385,14.2012,14.2012,0,0,1,9.4053,3.1348v-2.28Zm-11.6845,21.6895a8.0128,8.0128,0,0,0,3.0214-2.9932,8.6111,8.6111,0,0,0,1.14-4.4463,8.7672,8.7672,0,0,0-1.14-4.4736,8.06,8.06,0,0,0-6.9541-4.0752,7.6138,7.6138,0,0,0-5.7285,2.3359,8.5761,8.5761,0,0,0-2.2519,6.2129,8.475,8.475,0,0,0,2.2519,6.1856,7.6574,7.6574,0,0,0,5.7285,2.3086A7.9321,7.9321,0,0,0,585.3311,604.6486Z"/><path class="cls-1" d="M627.4258,583.6154a10.3234,10.3234,0,0,1,4.0185,4.2461,13.26,13.26,0,0,1,1.4248,6.2128v17.3282h-7.5244V595.671a7.1762,7.1762,0,0,0-1.5674-4.8447,5.2456,5.2456,0,0,0-4.1894-1.8242,6.2136,6.2136,0,0,0-5.2158,2.3935q-1.8531,2.3951-1.8526,7.41v12.5967h-7.5234V582.9591H612.52v2.5654a12.1015,12.1015,0,0,1,8.9492-3.42A11.6232,11.6232,0,0,1,627.4258,583.6154Z"/><path class="cls-1" d="M668.7217,570.3624v41.04h-7.5235V609.18a14.51,14.51,0,0,1-9.4052,3.0781,13.2421,13.2421,0,0,1-6.8682-1.91,14.1132,14.1132,0,0,1-5.1582-5.3574,16.5826,16.5826,0,0,1,0-15.5606,14.3445,14.3445,0,0,1,5.1582-5.3867,13.0993,13.0993,0,0,1,6.8682-1.9385,14.201,14.201,0,0,1,9.4052,3.1348v-14.877Zm-11.6846,34.2862a8.013,8.013,0,0,0,3.0215-2.9932,8.611,8.611,0,0,0,1.14-4.4463,8.7671,8.7671,0,0,0-1.14-4.4736,8.06,8.06,0,0,0-6.9541-4.0752,7.6137,7.6137,0,0,0-5.7285,2.3359,8.5758,8.5758,0,0,0-2.252,6.2129,8.4747,8.4747,0,0,0,2.252,6.1856,7.6572,7.6572,0,0,0,5.7285,2.3086A7.9315,7.9315,0,0,0,657.0371,604.6486Z"/><path class="cls-1" d="M100.834,638.7628v41.04H93.3105V677.58a14.5091,14.5091,0,0,1-9.4052,3.0772,13.2506,13.2506,0,0,1-6.8682-1.9092,14.116,14.116,0,0,1-5.1582-5.3584,16.5826,16.5826,0,0,1,0-15.5606,14.3445,14.3445,0,0,1,5.1582-5.3867,13.1085,13.1085,0,0,1,6.8682-1.9385,14.1963,14.1963,0,0,1,9.4052,3.1358v-14.877ZM89.1494,673.048a8.01,8.01,0,0,0,3.0215-2.9922,8.6136,8.6136,0,0,0,1.14-4.4463,8.7708,8.7708,0,0,0-1.14-4.4746,8.0657,8.0657,0,0,0-6.9541-4.0752,7.6108,7.6108,0,0,0-5.7285,2.3369,8.5742,8.5742,0,0,0-2.252,6.2129,8.4723,8.4723,0,0,0,2.252,6.1846,7.6572,7.6572,0,0,0,5.7285,2.3086A7.921,7.921,0,0,0,89.1494,673.048Z"/><path class="cls-1" d="M129.7051,652.5568a14.4029,14.4029,0,0,1,5.5859,5.3007,15.4849,15.4849,0,0,1,0,15.504,14.4029,14.4029,0,0,1-5.5859,5.3007,15.9619,15.9619,0,0,1-7.667,1.8809,16.4026,16.4026,0,0,1-7.78-1.8809,14.3544,14.3544,0,0,1-5.6435-5.2724,15.5906,15.5906,0,0,1,0-15.5606,14.3615,14.3615,0,0,1,5.6435-5.2724,16.4026,16.4026,0,0,1,7.78-1.8809A15.9619,15.9619,0,0,1,129.7051,652.5568Zm-3.8194,20.4912a8.6093,8.6093,0,0,0,0-14.877,7.6851,7.6851,0,0,0-3.8476-1.0547,8.2144,8.2144,0,0,0-3.99,1.0264,7.9988,7.9988,0,0,0-3.0489,2.9639,9.2576,9.2576,0,0,0,0,9.0058,7.9916,7.9916,0,0,0,3.0489,2.9639,8.2034,8.2034,0,0,0,3.99,1.0264A7.6647,7.6647,0,0,0,125.8857,673.048Z"/><path class="cls-1" d="M163.9619,652.5568a14.4031,14.4031,0,0,1,5.586,5.3007,15.4856,15.4856,0,0,1,0,15.504,14.4031,14.4031,0,0,1-5.586,5.3007,15.9616,15.9616,0,0,1-7.667,1.8809,16.4029,16.4029,0,0,1-7.78-1.8809,14.3544,14.3544,0,0,1-5.6435-5.2724,15.5906,15.5906,0,0,1,0-15.5606,14.3615,14.3615,0,0,1,5.6435-5.2724,16.4029,16.4029,0,0,1,7.78-1.8809A15.9616,15.9616,0,0,1,163.9619,652.5568Zm-3.8193,20.4912a8.6093,8.6093,0,0,0,0-14.877,7.6857,7.6857,0,0,0-3.8477-1.0547,8.2147,8.2147,0,0,0-3.99,1.0264,7.9993,7.9993,0,0,0-3.0488,2.9639,9.2569,9.2569,0,0,0,0,9.0058,7.992,7.992,0,0,0,3.0488,2.9639,8.2037,8.2037,0,0,0,3.99,1.0264A7.6653,7.6653,0,0,0,160.1426,673.048Z"/><path class="cls-1" d="M197.05,651.1886l-.3984,7.2393H194.998q-10.1469,0-10.1464,12.1972v9.1778h-7.5235V651.36h7.5235v5.1875a11.8863,11.8863,0,0,1,10.2031-5.5859A6.6846,6.6846,0,0,1,197.05,651.1886Z"/><path class="cls-1" d="M208.5352,673.7033a7.91,7.91,0,0,0,4.0185.9121,5.7868,5.7868,0,0,0,3.249-.7979A2.3864,2.3864,0,0,0,217,671.7658q0-1.881-3.1348-2.5655l-5.8144-1.1963a11.3476,11.3476,0,0,1-5.9561-2.9072,7.0982,7.0982,0,0,1-2.081-5.1875,8.5818,8.5818,0,0,1,1.4248-4.873,9.4286,9.4286,0,0,1,4.0478-3.335,14.6988,14.6988,0,0,1,6.1553-1.1973,14.0952,14.0952,0,0,1,8.2939,2.3379,9.4939,9.4939,0,0,1,4.0752,6.0987l-7.1816,1.4248a4.08,4.08,0,0,0-1.6816-2.85,6.0863,6.0863,0,0,0-3.7334-1.0831,4.3557,4.3557,0,0,0-2.9639.8262,2.5689,2.5689,0,0,0-.9121,1.9668,2.1573,2.1573,0,0,0,.5127,1.4531,3.8091,3.8091,0,0,0,2.0517.94l6.7832,1.4824a10.1,10.1,0,0,1,5.5577,2.9355,7.4014,7.4014,0,0,1,1.9091,5.1016,8.1863,8.1863,0,0,1-3.3916,7.0684q-3.3911,2.4492-9.0908,2.45a17.0058,17.0058,0,0,1-8.664-2.08,8.0118,8.0118,0,0,1-4.1045-6.2989l7.581-1.539A3.8168,3.8168,0,0,0,208.5352,673.7033Z"/><path class="cls-1" d="M272.6309,651.36v28.4434h-7.5235V677.58a14.5092,14.5092,0,0,1-9.4053,3.0772,13.2505,13.2505,0,0,1-6.8681-1.9092,14.116,14.116,0,0,1-5.1582-5.3584,16.5826,16.5826,0,0,1,0-15.5606,14.3445,14.3445,0,0,1,5.1582-5.3867,13.1084,13.1084,0,0,1,6.8681-1.9385,14.1964,14.1964,0,0,1,9.4053,3.1358v-2.28ZM260.9463,673.048a8.011,8.011,0,0,0,3.0215-2.9922,8.6136,8.6136,0,0,0,1.14-4.4463,8.7708,8.7708,0,0,0-1.14-4.4746,8.0657,8.0657,0,0,0-6.9541-4.0752,7.6108,7.6108,0,0,0-5.7285,2.3369,8.5742,8.5742,0,0,0-2.252,6.2129,8.4723,8.4723,0,0,0,2.252,6.1846,7.6572,7.6572,0,0,0,5.7285,2.3086A7.921,7.921,0,0,0,260.9463,673.048Z"/><path class="cls-1" d="M303.041,652.0148a10.3333,10.3333,0,0,1,4.0186,4.247,13.2621,13.2621,0,0,1,1.4248,6.2129v17.3282H300.96V664.07a7.1785,7.1785,0,0,0-1.5674-4.8447,5.2489,5.2489,0,0,0-4.19-1.8242,6.2137,6.2137,0,0,0-5.2158,2.3935q-1.8529,2.3951-1.8525,7.41v12.5977h-7.5235V651.36h7.5235v2.5654a12.102,12.102,0,0,1,8.9492-3.4209A11.6326,11.6326,0,0,1,303.041,652.0148Z"/><path class="cls-1" d="M344.3369,638.7628v41.04h-7.5234V677.58a14.5094,14.5094,0,0,1-9.4053,3.0772,13.2509,13.2509,0,0,1-6.8682-1.9092,14.1175,14.1175,0,0,1-5.1582-5.3584,16.5834,16.5834,0,0,1,0-15.5606,14.346,14.346,0,0,1,5.1582-5.3867,13.1087,13.1087,0,0,1,6.8682-1.9385,14.1966,14.1966,0,0,1,9.4053,3.1358v-14.877ZM332.6523,673.048a8.01,8.01,0,0,0,3.0215-2.9922,8.6136,8.6136,0,0,0,1.14-4.4463,8.7709,8.7709,0,0,0-1.14-4.4746A8.0657,8.0657,0,0,0,328.72,657.06a7.611,7.611,0,0,0-5.7285,2.3369,8.5745,8.5745,0,0,0-2.2519,6.2129,8.4726,8.4726,0,0,0,2.2519,6.1846,7.6574,7.6574,0,0,0,5.7285,2.3086A7.921,7.921,0,0,0,332.6523,673.048Z"/><path class="cls-1" d="M394.44,651.3029l-11.8555,28.5h-7.9805l-11.8555-28.5h8.0938l7.7519,19.3222,7.752-19.3222Z"/><path class="cls-1" d="M424.99,667.6046H403.33a8.41,8.41,0,0,0,2.5371,4.8164,6.5878,6.5878,0,0,0,4.5879,1.7959,10.4226,10.4226,0,0,0,3.9336-.7129,6.75,6.75,0,0,0,3.1347-3.0488l6.7256,1.4238a13.6837,13.6837,0,0,1-5.415,6.5557,15.5945,15.5945,0,0,1-8.3789,2.2227,14.4837,14.4837,0,0,1-7.3242-1.9092,14.13,14.13,0,0,1-5.3008-5.33,15.3717,15.3717,0,0,1-1.9668-7.8086,15.5378,15.5378,0,0,1,1.9668-7.8379,14.0214,14.0214,0,0,1,5.3291-5.3574,14.7517,14.7517,0,0,1,7.41-1.91,14.0839,14.0839,0,0,1,7.0391,1.8535,14.2925,14.2925,0,0,1,5.2725,5.1583,15.089,15.089,0,0,1,2.1093,7.5234Zm-18.7812-9.1767a6.3544,6.3544,0,0,0-2.65,3.8759h13.7363a7.0382,7.0382,0,0,0-2.5361-3.9326,6.9161,6.9161,0,0,0-4.19-1.3115A7.6342,7.6342,0,0,0,406.209,658.4279Z"/><path class="cls-1" d="M453.12,652.0148a10.3333,10.3333,0,0,1,4.0186,4.247,13.2621,13.2621,0,0,1,1.4248,6.2129v17.3282h-7.5244V664.07a7.1785,7.1785,0,0,0-1.5674-4.8447,5.2489,5.2489,0,0,0-4.19-1.8242,6.2137,6.2137,0,0,0-5.2158,2.3935q-1.853,2.3951-1.8525,7.41v12.5977H430.69V651.36h7.5235v2.5654a12.102,12.102,0,0,1,8.9492-3.4209A11.6326,11.6326,0,0,1,453.12,652.0148Z"/><path class="cls-1" d="M486.4932,678.549a20.57,20.57,0,0,1-3.876,1.624,12.9307,12.9307,0,0,1-3.5332.4844q-5.2457,0-8.208-2.8213-2.9649-2.8213-2.9649-8.5215V657.5158h-6.0986V651.36h6.0986v-8.6074h7.5244V651.36h9.2911v6.1563h-9.2911v11.2285a5.2971,5.2971,0,0,0,1.1114,3.705,3.9552,3.9552,0,0,0,3.05,1.1973,8.5287,8.5287,0,0,0,2.28-.3711,11.5345,11.5345,0,0,0,2.45-.9971Z"/><path class="cls-1" d="M497.95,639.7033a4.3744,4.3744,0,0,1,1.31,3.163,4.1624,4.1624,0,0,1-1.31,3.1358,4.8742,4.8742,0,0,1-6.5273,0,4.2067,4.2067,0,0,1-1.2823-3.1358,4.5752,4.5752,0,0,1,7.81-3.163Zm.5127,40.1h-7.5244V651.36h7.5244Z"/><path class="cls-1" d="M514.3652,679.8029h-7.5234v-41.04h7.5234Z"/><path class="cls-1" d="M550.958,651.36v28.4434h-7.5234V677.58a14.5094,14.5094,0,0,1-9.4053,3.0772,13.2509,13.2509,0,0,1-6.8682-1.9092,14.1168,14.1168,0,0,1-5.1582-5.3584,16.5834,16.5834,0,0,1,0-15.5606,14.3452,14.3452,0,0,1,5.1582-5.3867,13.1087,13.1087,0,0,1,6.8682-1.9385,14.1966,14.1966,0,0,1,9.4053,3.1358v-2.28ZM539.2734,673.048a8.01,8.01,0,0,0,3.0215-2.9922,8.6136,8.6136,0,0,0,1.14-4.4463,8.7709,8.7709,0,0,0-1.14-4.4746,8.0657,8.0657,0,0,0-6.9541-4.0752,7.611,7.611,0,0,0-5.7285,2.3369A8.5745,8.5745,0,0,0,527.36,665.61a8.4726,8.4726,0,0,0,2.2519,6.1846,7.6574,7.6574,0,0,0,5.7285,2.3086A7.921,7.921,0,0,0,539.2734,673.048Z"/><path class="cls-1" d="M579.6289,678.549a20.565,20.565,0,0,1-3.876,1.624,12.93,12.93,0,0,1-3.5332.4844q-5.2455,0-8.208-2.8213-2.9647-2.8213-2.9648-8.5215V657.5158h-6.0987V651.36h6.0987v-8.6074h7.5244V651.36h9.291v6.1563h-9.291v11.2285a5.2971,5.2971,0,0,0,1.1113,3.705,3.9552,3.9552,0,0,0,3.05,1.1973,8.5287,8.5287,0,0,0,2.28-.3711,11.5375,11.5375,0,0,0,2.45-.9971Z"/><path class="cls-1" d="M609.9531,667.6046h-21.66a8.41,8.41,0,0,0,2.5371,4.8164,6.5878,6.5878,0,0,0,4.5879,1.7959,10.4226,10.4226,0,0,0,3.9336-.7129,6.75,6.75,0,0,0,3.1347-3.0488l6.7256,1.4238a13.6837,13.6837,0,0,1-5.415,6.5557,15.5945,15.5945,0,0,1-8.3789,2.2227,14.4844,14.4844,0,0,1-7.3243-1.9092,14.13,14.13,0,0,1-5.3007-5.33,15.3707,15.3707,0,0,1-1.9668-7.8086,15.5368,15.5368,0,0,1,1.9668-7.8379,14.0214,14.0214,0,0,1,5.3291-5.3574,14.7517,14.7517,0,0,1,7.41-1.91,14.0842,14.0842,0,0,1,7.0391,1.8535,14.2914,14.2914,0,0,1,5.2724,5.1583,15.0881,15.0881,0,0,1,2.1094,7.5234Zm-18.7812-9.1767a6.3544,6.3544,0,0,0-2.65,3.8759h13.7363a7.0387,7.0387,0,0,0-2.5361-3.9326,6.9161,6.9161,0,0,0-4.19-1.3115A7.6342,7.6342,0,0,0,591.1719,658.4279Z"/><path class="cls-1" d="M658.2314,651.3029l-17.27,39.8994H632.582l5.3008-12.3115L626.084,651.3029h8.3789l7.5234,18.1826,7.8662-18.1826Z"/><path class="cls-1" d="M682.8271,652.5568a14.4024,14.4024,0,0,1,5.586,5.3007,15.4849,15.4849,0,0,1,0,15.504,14.4024,14.4024,0,0,1-5.586,5.3007,15.9615,15.9615,0,0,1-7.6669,1.8809,16.4026,16.4026,0,0,1-7.78-1.8809,14.3546,14.3546,0,0,1-5.6436-5.2724,15.5906,15.5906,0,0,1,0-15.5606,14.3618,14.3618,0,0,1,5.6436-5.2724,16.4026,16.4026,0,0,1,7.78-1.8809A15.9615,15.9615,0,0,1,682.8271,652.5568Zm-3.8193,20.4912a8.6093,8.6093,0,0,0,0-14.877,7.6853,7.6853,0,0,0-3.8476-1.0547,8.2148,8.2148,0,0,0-3.99,1.0264,7.9993,7.9993,0,0,0-3.0488,2.9639,9.2569,9.2569,0,0,0,0,9.0058,7.992,7.992,0,0,0,3.0488,2.9639,8.2038,8.2038,0,0,0,3.99,1.0264A7.665,7.665,0,0,0,679.0078,673.048Z"/><path class="cls-1" d="M723.3252,651.36v28.4434h-7.5244v-2.5655a12.1,12.1,0,0,1-8.9483,3.42,11.6163,11.6163,0,0,1-5.957-1.5108,10.3,10.3,0,0,1-4.0185-4.2461,13.2466,13.2466,0,0,1-1.4249-6.2129V651.36h7.5245v15.7324a7.17,7.17,0,0,0,1.5673,4.8447,5.2406,5.2406,0,0,0,4.1895,1.8243,6.2124,6.2124,0,0,0,5.2148-2.3946q1.8516-2.3936,1.8526-7.4091V651.36Z"/><path class="cls-1" d="M751.0273,651.1886l-.3984,7.2393h-1.6533q-10.147,0-10.1465,12.1972v9.1778h-7.5234V651.36h7.5234v5.1875a11.8865,11.8865,0,0,1,10.2031-5.5859A6.6841,6.6841,0,0,1,751.0273,651.1886Z"/><path class="cls-1" d="M225.0654,720.4152a10.33,10.33,0,0,1,4.0186,4.2461,13.2626,13.2626,0,0,1,1.4248,6.2138v17.3272h-7.5244V732.4708a7.1812,7.1812,0,0,0-1.5674-4.8457,5.2512,5.2512,0,0,0-4.19-1.8232,6.2138,6.2138,0,0,0-5.2158,2.3935q-1.8529,2.3936-1.8525,7.41v12.5967h-7.5235v-41.04h7.5235v15.1621a12.105,12.105,0,0,1,8.9492-3.42A11.6225,11.6225,0,0,1,225.0654,720.4152Z"/><path class="cls-1" d="M258.6387,720.9562a14.4126,14.4126,0,0,1,5.5859,5.3017,15.4847,15.4847,0,0,1,0,15.5039,14.41,14.41,0,0,1-5.5859,5.3008,15.9619,15.9619,0,0,1-7.667,1.8809,16.4026,16.4026,0,0,1-7.78-1.8809,14.3615,14.3615,0,0,1-5.6435-5.2724,15.5924,15.5924,0,0,1,0-15.5616,14.3759,14.3759,0,0,1,5.6435-5.2724,16.4026,16.4026,0,0,1,7.78-1.8809A15.9619,15.9619,0,0,1,258.6387,720.9562Zm-3.8194,20.4922a8.6108,8.6108,0,0,0,0-14.878,7.6838,7.6838,0,0,0-3.8476-1.0537,8.2041,8.2041,0,0,0-3.99,1.0264,7.9965,7.9965,0,0,0-3.0488,2.9629,9.26,9.26,0,0,0,0,9.0068,7.992,7.992,0,0,0,3.0488,2.9639,8.214,8.214,0,0,0,3.99,1.0254A7.6736,7.6736,0,0,0,254.8193,741.4484Z"/><path class="cls-1" d="M313.2441,720.3575a10.8343,10.8343,0,0,1,4.0469,4.0762,11.7728,11.7728,0,0,1,1.5108,5.9844v17.7842H311.335V731.9572a6.2373,6.2373,0,0,0-1.5967-4.4747,5.2738,5.2738,0,0,0-3.9893-1.6806,5.8832,5.8832,0,0,0-4.8457,2.1943q-1.7665,2.1943-1.7666,6.5264v13.68h-7.5244V731.9572a6.2367,6.2367,0,0,0-1.5957-4.4747,5.2759,5.2759,0,0,0-3.99-1.6806,5.7562,5.7562,0,0,0-4.7881,2.165q-1.71,2.1679-1.71,6.5557v13.68h-7.5234V719.76h7.5234v2.3369a11.48,11.48,0,0,1,8.4932-3.1924A11.8219,11.8219,0,0,1,293.38,720.13a10.4812,10.4812,0,0,1,3.99,3.4483,12.616,12.616,0,0,1,4.417-3.4483,13.7931,13.7931,0,0,1,5.9561-1.2256A10.8819,10.8819,0,0,1,313.2441,720.3575Z"/><path class="cls-1" d="M352.8877,736.004h-21.66a8.4037,8.4037,0,0,0,2.5371,4.8164,6.5882,6.5882,0,0,0,4.5879,1.7959,10.4417,10.4417,0,0,0,3.9336-.7119,6.7522,6.7522,0,0,0,3.1348-3.05l6.7256,1.4248a13.6761,13.6761,0,0,1-5.4151,6.5547,15.5859,15.5859,0,0,1-8.3789,2.2236,14.4842,14.4842,0,0,1-7.3242-1.9091,14.1385,14.1385,0,0,1-5.3008-5.33,15.3769,15.3769,0,0,1-1.9668-7.8086,15.5378,15.5378,0,0,1,1.9668-7.8379,14.0158,14.0158,0,0,1,5.3291-5.3574,14.7418,14.7418,0,0,1,7.41-1.91,14.0823,14.0823,0,0,1,7.0391,1.8526,14.2988,14.2988,0,0,1,5.2724,5.1582,15.0928,15.0928,0,0,1,2.1094,7.5244Zm-18.7813-9.1767a6.3538,6.3538,0,0,0-2.65,3.876h13.7363a7.0391,7.0391,0,0,0-2.5362-3.9327,6.9156,6.9156,0,0,0-4.1894-1.3115A7.6347,7.6347,0,0,0,334.1064,726.8273Z"/><path class="cls-1" d="M392.16,719.588l-.3985,7.2393h-1.6533q-10.147,0-10.1465,12.1982v9.1768h-7.5234V719.76h7.5234v5.1865a11.8888,11.8888,0,0,1,10.2031-5.5859A6.7181,6.7181,0,0,1,392.16,719.588Z"/><path class="cls-1" d="M423.4531,736.004h-21.66A8.4037,8.4037,0,0,0,404.33,740.82a6.5878,6.5878,0,0,0,4.5879,1.7959,10.4421,10.4421,0,0,0,3.9336-.7119,6.7525,6.7525,0,0,0,3.1347-3.05l6.7256,1.4248a13.6765,13.6765,0,0,1-5.415,6.5547,15.5861,15.5861,0,0,1-8.3789,2.2236,14.4843,14.4843,0,0,1-7.3243-1.9091,14.1375,14.1375,0,0,1-5.3007-5.33,15.3759,15.3759,0,0,1-1.9668-7.8086,15.5368,15.5368,0,0,1,1.9668-7.8379,14.0145,14.0145,0,0,1,5.3291-5.3574,14.7414,14.7414,0,0,1,7.41-1.91,14.0823,14.0823,0,0,1,7.0391,1.8526,14.2981,14.2981,0,0,1,5.2724,5.1582,15.0918,15.0918,0,0,1,2.1094,7.5244Zm-18.7812-9.1767a6.3544,6.3544,0,0,0-2.65,3.876h13.7363a7.039,7.039,0,0,0-2.5361-3.9327,6.9161,6.9161,0,0,0-4.19-1.3115A7.6342,7.6342,0,0,0,404.6719,726.8273Z"/><path class="cls-1" d="M456.9121,746.8917q0,6.441-4.1045,10.003-4.1029,3.5625-11.1142,3.5625a20.0662,20.0662,0,0,1-8.4366-1.6241,12.1738,12.1738,0,0,1-5.415-4.6455l6.1-4.6172a12.5089,12.5089,0,0,0,3.42,3.1641,8.713,8.713,0,0,0,4.3321.94,7.882,7.882,0,0,0,5.7851-2.1093,7.7993,7.7993,0,0,0,2.1377-5.8135V743.87q-3.249,2.6236-8.9492,2.6221a13.1909,13.1909,0,0,1-6.7256-1.8525,14.3986,14.3986,0,0,1-5.13-5.0157,13.4425,13.4425,0,0,1,0-13.9082,14.177,14.177,0,0,1,5.13-4.9873,13.353,13.353,0,0,1,6.7256-1.8242,14.17,14.17,0,0,1,8.9492,2.6221V719.76h7.2393Zm-11.1719-7.78a7.3465,7.3465,0,0,0,2.8213-2.6221,7.5457,7.5457,0,0,0,0-7.6953,7.3541,7.3541,0,0,0-2.8213-2.6221,7.8937,7.8937,0,0,0-3.7617-.94,7.9961,7.9961,0,0,0-5.6435,2.0517,7.57,7.57,0,0,0,0,10.7168,8,8,0,0,0,5.6435,2.0518A7.8949,7.8949,0,0,0,445.74,739.1115Z"/><path class="cls-1" d="M492.0244,719.76v28.4424H484.5v-2.5645a12.1,12.1,0,0,1-8.9482,3.42,11.6252,11.6252,0,0,1-5.9571-1.5107,10.3,10.3,0,0,1-4.0185-4.2461,13.2465,13.2465,0,0,1-1.4248-6.2129V719.76h7.5244v15.7314a7.1683,7.1683,0,0,0,1.5674,4.8448,5.24,5.24,0,0,0,4.1894,1.8242,6.2146,6.2146,0,0,0,5.2149-2.3936q1.8515-2.3951,1.8525-7.41V719.76Z"/><path class="cls-1" d="M507.5283,748.2023h-7.5234v-41.04h7.5234Z"/><path class="cls-1" d="M544.1211,719.76v28.4424h-7.5234V745.98a14.51,14.51,0,0,1-9.4053,3.0781,13.2505,13.2505,0,0,1-6.8682-1.9091,14.1239,14.1239,0,0,1-5.1582-5.3584,16.5846,16.5846,0,0,1,0-15.5616,14.3525,14.3525,0,0,1,5.1582-5.3867,13.1074,13.1074,0,0,1,6.8682-1.9375,14.2014,14.2014,0,0,1,9.4053,3.1348V719.76Zm-11.6846,21.6885a8.013,8.013,0,0,0,3.0215-2.9932,8.61,8.61,0,0,0,1.14-4.4453,8.7683,8.7683,0,0,0-1.14-4.4746,8.0639,8.0639,0,0,0-6.9541-4.0762,7.608,7.608,0,0,0-5.7285,2.3379,8.5742,8.5742,0,0,0-2.252,6.2129,8.4714,8.4714,0,0,0,2.252,6.1836,7.6572,7.6572,0,0,0,5.7285,2.3086A7.93,7.93,0,0,0,532.4365,741.4484Z"/><path class="cls-1" d="M571.8232,719.588l-.3984,7.2393h-1.6533q-10.147,0-10.1465,12.1982v9.1768h-7.5234V719.76h7.5234v5.1865a11.8888,11.8888,0,0,1,10.2031-5.5859A6.7174,6.7174,0,0,1,571.8232,719.588Z"/><path class="cls-1" d="M584.0771,748.2023h-7.5234v-41.04h7.5234Z"/><path class="cls-1" d="M620.7842,719.7023l-17.2705,39.9h-8.3789l5.3007-12.3125-11.7988-27.5879h8.3789l7.5235,18.1836,7.8662-18.1836Z"/></g><g id="Outlinet_ikoner" data-name="Outlinet ikoner"><polyline class="cls-2" points="259.093 483.368 259.093 120.486 560.907 120.486 560.907 483.368"/><polyline class="cls-3" points="299.053 158.826 485.598 210.4 485.598 483.368"/><line class="cls-3" x1="485.5982" y1="352.3233" x2="299.0533" y2="352.3233"/><line class="cls-3" x1="388.2848" y1="185.7323" x2="388.2848" y2="483.3684"/></g></svg>