<?xml version="1.0" encoding="UTF-8"?><svg xmlns="http://www.w3.org/2000/svg" width="820" height="820" viewBox="0 0 820 820"><defs><style>.e{fill:#00415a;}.f{fill:#005f87;}.g{fill:#64b4dc;}</style></defs><g id="a"><g><path class="e" d="M250.4297,565.3161c2.7363,1.9766,4.4648,4.6553,5.1875,8.0371l-7.752,1.5957c-.2666-1.7852-1.1025-3.2197-2.5078-4.3027-1.4062-1.083-3.0781-1.625-5.0166-1.625-1.8623,0-3.3633,.4561-4.5029,1.3682s-1.71,2.0332-1.71,3.3633c0,1.0264,.2852,1.8623,.8555,2.5078,.5693,.6465,1.5576,1.1025,2.9639,1.3682l8.208,1.6523c3.1533,.6846,5.6143,1.9482,7.3809,3.791,1.7676,1.8438,2.6504,4.2275,2.6504,7.1533,0,2.4326-.627,4.5596-1.8809,6.3838s-3.0303,3.2207-5.3291,4.1895c-2.2998,.9697-4.9502,1.4541-7.9512,1.4541-4.2188,0-7.8193-.9775-10.8018-2.9355-2.9834-1.957-4.7021-4.7598-5.1582-8.4072l8.1504-1.6533c.4932,2.0898,1.4824,3.6475,2.9639,4.6738,1.4824,1.0264,3.3438,1.5391,5.5859,1.5391,2.166,0,3.8379-.4561,5.0166-1.3682,1.1768-.9121,1.7666-2.0703,1.7666-3.4766,0-1.1406-.333-2.0332-.9971-2.6797-.666-.6455-1.8154-1.1396-3.4492-1.4814l-8.0938-1.5391c-6.6885-1.4053-10.0322-5.0537-10.0322-10.9443,0-2.2793,.5889-4.293,1.7676-6.042,1.1777-1.7471,2.8682-3.1152,5.0732-4.1035,2.2031-.9883,4.7676-1.4824,7.6943-1.4824,3.876,0,7.1826,.9893,9.918,2.9639Z"/><path class="e" d="M283.1475,600.1433c-1.4443,.7607-2.7354,1.3018-3.876,1.625-1.1396,.3223-2.3184,.4844-3.5332,.4844-3.4971,0-6.2334-.9404-8.208-2.8213-1.9766-1.8809-2.9648-4.7217-2.9648-8.5215v-11.7998h-6.0986v-6.1553h6.0986v-8.6074h7.5244v8.6074h9.291v6.1553h-9.291v11.2295c0,1.6719,.3701,2.9072,1.1113,3.7051s1.7578,1.1973,3.0498,1.1973c.6455,0,1.4053-.123,2.2803-.3711,.873-.2461,1.6904-.5791,2.4502-.9971l2.166,6.2695Z"/><path class="e" d="M315.2373,572.9548v28.4424h-7.5234v-2.2227c-2.5459,2.0518-5.6816,3.0781-9.4053,3.0781-2.4316,0-4.7217-.6367-6.8682-1.9092-2.1475-1.2734-3.8672-3.0586-5.1582-5.3584-1.293-2.2988-1.9385-4.8926-1.9385-7.7803s.6455-5.4814,1.9385-7.7812c1.291-2.2988,3.0107-4.0938,5.1582-5.3867,2.1465-1.291,4.4365-1.9375,6.8682-1.9375,3.7617,0,6.8975,1.0459,9.4053,3.1348v-2.2793h7.5234Zm-11.6846,21.6885c1.2539-.7031,2.2607-1.7002,3.0215-2.9932,.7588-1.291,1.1396-2.7734,1.1396-4.4453s-.3809-3.1641-1.1396-4.4746c-.7607-1.3115-1.7676-2.3174-3.0215-3.0215-1.2539-.7021-2.5654-1.0547-3.9326-1.0547-2.3184,0-4.2285,.7793-5.7285,2.3379-1.502,1.5586-2.252,3.6289-2.252,6.2129s.75,4.6445,2.252,6.1836c1.5,1.5391,3.4102,2.3086,5.7285,2.3086,1.3672,0,2.6787-.3506,3.9326-1.0537Z"/><path class="e" d="M351.9453,572.8972l-17.2705,39.9004h-8.3789l5.3008-12.3125-11.7988-27.5879h8.3789l7.5234,18.1836,7.8662-18.1836h8.3789Z"/><path class="e" d="M398.9697,572.9548v28.4424h-7.5234v-2.2227c-2.5459,2.0518-5.6816,3.0781-9.4053,3.0781-2.4316,0-4.7217-.6367-6.8682-1.9092-2.1475-1.2734-3.8672-3.0586-5.1582-5.3584-1.293-2.2988-1.9385-4.8926-1.9385-7.7803s.6455-5.4814,1.9385-7.7812c1.291-2.2988,3.0107-4.0938,5.1582-5.3867,2.1465-1.291,4.4365-1.9375,6.8682-1.9375,3.7617,0,6.8975,1.0459,9.4053,3.1348v-2.2793h7.5234Zm-11.6846,21.6885c1.2539-.7031,2.2607-1.7002,3.0215-2.9932,.7588-1.291,1.1396-2.7734,1.1396-4.4453s-.3809-3.1641-1.1396-4.4746c-.7607-1.3115-1.7676-2.3174-3.0215-3.0215-1.2539-.7021-2.5654-1.0547-3.9326-1.0547-2.3184,0-4.2285,.7793-5.7285,2.3379-1.502,1.5586-2.252,3.6289-2.252,6.2129s.75,4.6445,2.252,6.1836c1.5,1.5391,3.4102,2.3086,5.7285,2.3086,1.3672,0,2.6787-.3506,3.9326-1.0537Z"/><path class="e" d="M427.6406,600.1433c-1.4443,.7607-2.7354,1.3018-3.876,1.625-1.1396,.3223-2.3184,.4844-3.5332,.4844-3.4971,0-6.2334-.9404-8.208-2.8213-1.9766-1.8809-2.9648-4.7217-2.9648-8.5215v-11.7998h-6.0986v-6.1553h6.0986v-8.6074h7.5244v8.6074h9.291v6.1553h-9.291v11.2295c0,1.6719,.3701,2.9072,1.1113,3.7051s1.7578,1.1973,3.0498,1.1973c.6455,0,1.4053-.123,2.2803-.3711,.873-.2461,1.6904-.5791,2.4502-.9971l2.166,6.2695Z"/><path class="e" d="M467.9678,573.6101c1.7285,1.0068,3.0674,2.4229,4.0186,4.2461,.9492,1.8242,1.4248,3.8955,1.4248,6.2139v17.3271h-7.5244v-15.7314c0-2.0137-.5225-3.6289-1.5674-4.8457-1.0459-1.2148-2.4424-1.8232-4.1895-1.8232-2.2422,0-3.9814,.7979-5.2158,2.3936-1.2354,1.5957-1.8525,4.0664-1.8525,7.4102v12.5967h-7.5234v-41.04h7.5234v15.1621c2.2803-2.2793,5.2627-3.4199,8.9492-3.4199,2.2422,0,4.2266,.5039,5.957,1.5107Z"/><path class="e" d="M501.541,574.1511c2.3369,1.2549,4.1982,3.0215,5.5859,5.3018,1.3867,2.2793,2.0801,4.8643,2.0801,7.752s-.6934,5.4717-2.0801,7.752c-1.3877,2.2793-3.249,4.0469-5.5859,5.3008s-4.8936,1.8809-7.667,1.8809c-2.8125,0-5.4062-.627-7.7803-1.8809-2.375-1.2539-4.2568-3.0117-5.6436-5.2725s-2.0801-4.8545-2.0801-7.7803,.6934-5.5195,2.0801-7.7812c1.3867-2.2598,3.2686-4.0176,5.6436-5.2725,2.374-1.2539,4.9678-1.8809,7.7803-1.8809,2.7734,0,5.3301,.627,7.667,1.8809Zm-3.8193,20.4922c1.2344-.7031,2.2412-1.6904,3.0205-2.9639s1.1689-2.7646,1.1689-4.4746c0-1.7109-.3896-3.2012-1.1689-4.4746s-1.7861-2.2607-3.0205-2.9648c-1.2354-.7021-2.5176-1.0537-3.8477-1.0537-1.4062,0-2.7363,.3418-3.9902,1.0264-1.2539,.6836-2.2705,1.6719-3.0488,2.9629-.7793,1.293-1.1689,2.793-1.1689,4.5039,0,1.71,.3896,3.2109,1.1689,4.5029,.7783,1.292,1.7949,2.2803,3.0488,2.9639s2.584,1.0254,3.9902,1.0254c1.3301,0,2.6123-.3506,3.8477-1.0537Z"/><path class="e" d="M556.1465,573.5525c1.6904,.9697,3.04,2.3281,4.0469,4.0762s1.5107,3.7432,1.5107,5.9844v17.7842h-7.4668v-16.2451c0-1.8613-.5332-3.3525-1.5967-4.4746-1.0635-1.1201-2.3936-1.6807-3.9893-1.6807-2.0527,0-3.668,.7314-4.8457,2.1943s-1.7666,3.6387-1.7666,6.5264v13.6797h-7.5244v-16.2451c0-1.8613-.5322-3.3525-1.5957-4.4746-1.0645-1.1201-2.3936-1.6807-3.9902-1.6807-2.0518,0-3.6475,.7217-4.7881,2.165-1.1396,1.4453-1.71,3.6299-1.71,6.5557v13.6797h-7.5234v-28.4424h7.5234v2.3369c2.1279-2.1279,4.959-3.1924,8.4932-3.1924,1.9385,0,3.7236,.4092,5.3584,1.2256,1.6328,.8174,2.9639,1.9668,3.9902,3.4482,1.2148-1.4814,2.6875-2.6309,4.417-3.4482,1.7285-.8164,3.7139-1.2256,5.9561-1.2256,1.9756,0,3.8096,.4844,5.501,1.4531Z"/><path class="e" d="M595.79,589.199h-21.6602c.3799,2.0156,1.2256,3.6201,2.5371,4.8164,1.3105,1.1973,2.8398,1.7959,4.5879,1.7959,1.4443,0,2.7549-.2373,3.9336-.7119,1.1768-.4746,2.2227-1.4912,3.1348-3.0498l6.7256,1.4248c-1.2158,2.8887-3.0205,5.0732-5.415,6.5547-2.3936,1.4824-5.1865,2.2236-8.3789,2.2236-2.6602,0-5.1016-.6367-7.3242-1.9092-2.2227-1.2734-3.9902-3.0498-5.3008-5.3301-1.3115-2.2803-1.9668-4.8828-1.9668-7.8086s.6553-5.5381,1.9668-7.8379c1.3105-2.2988,3.0869-4.084,5.3291-5.3574s4.7119-1.9102,7.4102-1.9102c2.5078,0,4.8535,.6182,7.0391,1.8525,2.1855,1.2354,3.9424,2.9551,5.2725,5.1582,1.3301,2.2041,2.0332,4.7129,2.1094,7.5244v2.5645Zm-18.7812-9.1768c-1.3496,.9121-2.2334,2.2041-2.6504,3.876h13.7363c-.4941-1.7471-1.3389-3.0586-2.5361-3.9326s-2.5938-1.3115-4.1895-1.3115c-1.5586,0-3.0117,.4561-4.3604,1.3682Z"/><path class="e" d="M260.748,629.698c.873,.8936,1.3105,1.9482,1.3105,3.1631,0,1.2539-.4375,2.2998-1.3105,3.1348-.875,.8369-1.958,1.2539-3.249,1.2539-1.3311,0-2.4229-.417-3.2783-1.2539-.8545-.835-1.2822-1.8809-1.2822-3.1348,0-1.2148,.4365-2.2695,1.3115-3.1631,.873-.8926,1.9561-1.3398,3.249-1.3398,1.291,0,2.374,.4473,3.249,1.3398Zm.5127,40.0996h-7.5244v-28.4434h7.5244v28.4434Z"/><path class="e" d="M278.6455,641.3542h8.6064v6.1562h-8.6064v22.2871h-7.5244v-22.2871h-4.332v-6.1562h4.332v-2.5654c0-3.3057,1.0264-5.9277,3.0781-7.8652,2.0518-1.9385,4.7686-2.9072,8.1514-2.9072,1.8242,0,3.5146,.3613,5.0732,1.083l-1.71,6.0986c-1.0264-.3418-1.9766-.5127-2.8506-.5127-1.2539,0-2.2705,.3613-3.0498,1.083-.7793,.7227-1.168,1.7295-1.168,3.0205v2.5654Z"/><path class="e" d="M333.25,641.2976l-17.2705,39.8994h-8.3789l5.3008-12.3115-11.7988-27.5879h8.3789l7.5234,18.1826,7.8662-18.1826h8.3789Z"/><path class="e" d="M357.8467,642.5515c2.3369,1.2539,4.1982,3.0205,5.5859,5.3008,1.3867,2.2803,2.0801,4.8643,2.0801,7.752s-.6934,5.4717-2.0801,7.752c-1.3877,2.2803-3.249,4.0469-5.5859,5.3018-2.3369,1.2539-4.8936,1.8809-7.667,1.8809-2.8125,0-5.4062-.627-7.7803-1.8809-2.375-1.2549-4.2568-3.0117-5.6436-5.2734-1.3867-2.2598-2.0801-4.8535-2.0801-7.7803s.6934-5.5186,2.0801-7.7803c1.3867-2.2607,3.2686-4.0186,5.6436-5.2725,2.374-1.2539,4.9678-1.8809,7.7803-1.8809,2.7734,0,5.3301,.627,7.667,1.8809Zm-3.8193,20.4912c1.2344-.7031,2.2412-1.6904,3.0205-2.9639,.7793-1.2725,1.1689-2.7646,1.1689-4.4746s-.3896-3.2002-1.1689-4.4746c-.7793-1.2725-1.7861-2.2607-3.0205-2.9639-1.2354-.7031-2.5176-1.0547-3.8477-1.0547-1.4062,0-2.7363,.3418-3.9902,1.0264-1.2539,.6836-2.2705,1.6729-3.0488,2.9639-.7793,1.292-1.1689,2.793-1.1689,4.5029s.3896,3.2119,1.1689,4.5029c.7783,1.293,1.7949,2.2803,3.0488,2.9639,1.2539,.6846,2.584,1.0264,3.9902,1.0264,1.3301,0,2.6123-.3516,3.8477-1.0547Z"/><path class="e" d="M398.3447,641.3542v28.4434h-7.5244v-2.5654c-2.2793,2.2803-5.2637,3.4199-8.9482,3.4199-2.2432,0-4.2285-.5039-5.957-1.5098-1.7295-1.0068-3.0693-2.4229-4.0186-4.2471-.9502-1.8242-1.4248-3.8945-1.4248-6.2129v-17.3281h7.5244v15.7324c0,2.0146,.5215,3.6289,1.5674,4.8447,1.0439,1.2168,2.4404,1.8242,4.1895,1.8242,2.2412,0,3.9795-.7988,5.2148-2.3945,1.2344-1.5957,1.8525-4.0654,1.8525-7.4102v-12.5967h7.5244Z"/><path class="e" d="M448.7891,641.3542v28.4434h-7.5234v-2.2236c-2.5459,2.0527-5.6816,3.0781-9.4053,3.0781-2.4316,0-4.7217-.6367-6.8682-1.9092-2.1475-1.2725-3.8672-3.0586-5.1582-5.3584-1.293-2.2988-1.9385-4.8916-1.9385-7.7803s.6455-5.4805,1.9385-7.7803c1.291-2.2988,3.0107-4.0938,5.1582-5.3867,2.1465-1.291,4.4365-1.9375,6.8682-1.9375,3.7617,0,6.8975,1.0449,9.4053,3.1348v-2.2803h7.5234Zm-11.6846,21.6885c1.2539-.7031,2.2607-1.7002,3.0215-2.9922,.7588-1.291,1.1396-2.7734,1.1396-4.4463,0-1.6719-.3809-3.1631-1.1396-4.4746-.7607-1.3105-1.7676-2.3174-3.0215-3.0205s-2.5654-1.0547-3.9326-1.0547c-2.3184,0-4.2285,.7793-5.7285,2.3369-1.502,1.5586-2.252,3.6299-2.252,6.2129,0,2.585,.75,4.6455,2.252,6.1846,1.5,1.5391,3.4102,2.3086,5.7285,2.3086,1.3672,0,2.6787-.3516,3.9326-1.0547Z"/><path class="e" d="M476.4912,641.1833l-.3984,7.2393h-1.6533c-6.7646,0-10.1465,4.0664-10.1465,12.1982v9.1768h-7.5234v-28.4434h7.5234v5.1865c2.584-3.7227,5.9854-5.5859,10.2031-5.5859,.874,0,1.5391,.0771,1.9951,.2285Z"/><path class="e" d="M507.7832,657.5993h-21.6602c.3799,2.0146,1.2256,3.6191,2.5371,4.8164,1.3105,1.1973,2.8398,1.7959,4.5879,1.7959,1.4443,0,2.7549-.2373,3.9336-.7129,1.1768-.4746,2.2227-1.4912,3.1348-3.0498l6.7256,1.4258c-1.2158,2.8877-3.0205,5.0723-5.415,6.5547-2.3936,1.4824-5.1865,2.2227-8.3789,2.2227-2.6602,0-5.1016-.6367-7.3242-1.9092s-3.9902-3.0498-5.3008-5.3291c-1.3115-2.2803-1.9668-4.8828-1.9668-7.8096s.6553-5.5381,1.9668-7.8369c1.3105-2.2988,3.0869-4.085,5.3291-5.3584,2.2422-1.2725,4.7119-1.9092,7.4102-1.9092,2.5078,0,4.8535,.6172,7.0391,1.8516,2.1855,1.2363,3.9424,2.9551,5.2725,5.1592s2.0332,4.7119,2.1094,7.5244v2.5645Zm-18.7812-9.1768c-1.3496,.9121-2.2334,2.2041-2.6504,3.876h13.7363c-.4941-1.748-1.3389-3.0586-2.5361-3.9336-1.1973-.873-2.5938-1.3105-4.1895-1.3105-1.5586,0-3.0117,.4561-4.3604,1.3682Z"/><path class="e" d="M534.7441,629.698c.873,.8936,1.3105,1.9482,1.3105,3.1631,0,1.2539-.4375,2.2998-1.3105,3.1348-.875,.8369-1.958,1.2539-3.249,1.2539-1.3311,0-2.4229-.417-3.2783-1.2539-.8545-.835-1.2822-1.8809-1.2822-3.1348,0-1.2148,.4365-2.2695,1.3115-3.1631,.873-.8926,1.9561-1.3398,3.249-1.3398,1.291,0,2.374,.4473,3.249,1.3398Zm.5127,40.0996h-7.5244v-28.4434h7.5244v28.4434Z"/><path class="e" d="M551.1592,669.7976h-7.5234v-41.04h7.5234v41.04Z"/><path class="e" d="M566.6621,669.7976h-7.5234v-41.04h7.5234v41.04Z"/></g></g><g id="b"/><g id="c"><g><g><polygon class="f" points="456.0306 64.3831 199.1594 289.3011 209.6433 301.2733 456.0306 85.5392 610.3568 220.6662 620.8406 208.694 456.0306 64.3831"/><rect class="f" x="269.8172" y="306.9391" width="15.9142" height="178.1503"/></g><g><rect class="g" x="389.9707" y="423.4814" width="15.9142" height="61.6033"/><path class="g" d="M336.5211,399.3063l-.0047,85.7831h15.9142l.0047-85.7831c0-32.5443,26.4758-59.0177,59.02-59.0177v-15.9189c-41.3185,0-74.9342,33.6181-74.9342,74.9366Z"/><path class="g" d="M575.5401,399.3063c0-41.3185-33.6157-74.9366-74.9342-74.9366v15.9189c32.5443,0,59.02,26.4734,59.02,59.0177l.0047,85.7831h15.9142l-.0047-85.7831Z"/><rect class="g" x="506.1763" y="423.4814" width="15.9142" height="61.6033"/><path class="g" d="M456.0306,191.5224c-33.6463,0-61.0193,27.373-61.0193,61.0193s27.373,61.0193,61.0193,61.0193,61.0193-27.373,61.0193-61.0193-27.373-61.0193-61.0193-61.0193Zm0,106.1197c-24.8697,0-45.1051-20.233-45.1051-45.1004s20.2354-45.1004,45.1051-45.1004,45.1051,20.233,45.1051,45.1004-20.2354,45.1004-45.1051,45.1004Z"/></g></g></g><g id="d"/></svg>