<svg xmlns="http://www.w3.org/2000/svg" width="820" height="820" viewBox="0 0 820 820"><defs><style>.cls-1{fill:#00415a;}.cls-2{fill:#64b4dc;}.cls-3{fill:#005f87;}</style></defs><g id="Outlinet_Tekst_UK_09.09.21"><path class="cls-1" d="M142.7285,573.21l-11.1142,38.19H123.292l-7.41-25.7637-7.4668,25.7637h-8.2656L89.0352,573.21h8.0937l7.2959,26.334L112.12,573.21h7.4668l7.6953,26.334,7.2959-26.334Z"/><path class="cls-1" d="M173.6221,582.9572v28.4433h-7.5235v-2.2226a14.51,14.51,0,0,1-9.4052,3.0771,13.25,13.25,0,0,1-6.8682-1.9092,14.1153,14.1153,0,0,1-5.1582-5.3584,16.5824,16.5824,0,0,1,0-15.56,14.3445,14.3445,0,0,1,5.1582-5.3867,13.1076,13.1076,0,0,1,6.8682-1.9385,14.1968,14.1968,0,0,1,9.4052,3.1357v-2.28Zm-11.6846,21.6884a8.01,8.01,0,0,0,3.0215-2.9922,8.6132,8.6132,0,0,0,1.14-4.4462,8.7714,8.7714,0,0,0-1.14-4.4747,8.0653,8.0653,0,0,0-6.9541-4.0751,7.61,7.61,0,0,0-5.7285,2.3369,8.5742,8.5742,0,0,0-2.252,6.2129,8.472,8.472,0,0,0,2.252,6.1845,7.6568,7.6568,0,0,0,5.7285,2.3086A7.921,7.921,0,0,0,161.9375,604.6456Z"/><path class="cls-1" d="M188.6416,605.3009a7.9092,7.9092,0,0,0,4.0186.9121,5.7872,5.7872,0,0,0,3.249-.7978,2.3867,2.3867,0,0,0,1.1972-2.0518q0-1.8808-3.1347-2.5654l-5.8145-1.1963a11.3484,11.3484,0,0,1-5.956-2.9072,7.0984,7.0984,0,0,1-2.0811-5.1875,8.5819,8.5819,0,0,1,1.4248-4.8731,9.4282,9.4282,0,0,1,4.0479-3.3349,14.698,14.698,0,0,1,6.1552-1.1973,14.0954,14.0954,0,0,1,8.294,2.3379,9.4947,9.4947,0,0,1,4.0752,6.0986l-7.1817,1.4248a4.0805,4.0805,0,0,0-1.6816-2.85,6.0861,6.0861,0,0,0-3.7334-1.083,4.3558,4.3558,0,0,0-2.9639.8262,2.5687,2.5687,0,0,0-.9121,1.9668,2.1573,2.1573,0,0,0,.5127,1.4531,3.81,3.81,0,0,0,2.0518.94l6.7832,1.4824a10.1,10.1,0,0,1,5.5576,2.9356,7.401,7.401,0,0,1,1.9092,5.1016,8.1863,8.1863,0,0,1-3.3916,7.0683q-3.3912,2.4492-9.0908,2.45a17.0062,17.0062,0,0,1-8.6641-2.08,8.0121,8.0121,0,0,1-4.1045-6.2988l7.5811-1.5391A3.8166,3.8166,0,0,0,188.6416,605.3009Z"/><path class="cls-1" d="M232.7031,583.6124a10.3335,10.3335,0,0,1,4.0186,4.2471,13.2615,13.2615,0,0,1,1.4248,6.2129v17.3281h-7.5244V595.6681a7.1783,7.1783,0,0,0-1.5674-4.8447,5.2487,5.2487,0,0,0-4.19-1.8243,6.2138,6.2138,0,0,0-5.2158,2.3936q-1.853,2.3951-1.8525,7.41v12.5976h-7.5235v-41.04h7.5235v15.1621a12.1016,12.1016,0,0,1,8.9492-3.4209A11.6333,11.6333,0,0,1,232.7031,583.6124Z"/><path class="cls-1" d="M281.666,583.6124a10.3335,10.3335,0,0,1,4.0186,4.2471,13.2615,13.2615,0,0,1,1.4248,6.2129v17.3281H279.585V595.6681a7.1783,7.1783,0,0,0-1.5674-4.8447,5.2487,5.2487,0,0,0-4.19-1.8243,6.2138,6.2138,0,0,0-5.2158,2.3936q-1.8529,2.3951-1.8525,7.41v12.5976h-7.5235v-41.04H266.76v15.1621a12.1016,12.1016,0,0,1,8.9492-3.4209A11.6336,11.6336,0,0,1,281.666,583.6124Z"/><path class="cls-1" d="M322.9619,582.9572v28.4433h-7.5234v-2.2226a14.51,14.51,0,0,1-9.4053,3.0771,13.25,13.25,0,0,1-6.8682-1.9092,14.1168,14.1168,0,0,1-5.1582-5.3584,16.5832,16.5832,0,0,1,0-15.56,14.346,14.346,0,0,1,5.1582-5.3867,13.1078,13.1078,0,0,1,6.8682-1.9385,14.197,14.197,0,0,1,9.4053,3.1357v-2.28Zm-11.6846,21.6884a8.01,8.01,0,0,0,3.0215-2.9922,8.6133,8.6133,0,0,0,1.14-4.4462,8.7715,8.7715,0,0,0-1.14-4.4747,8.0653,8.0653,0,0,0-6.9541-4.0751,7.6106,7.6106,0,0,0-5.7285,2.3369,8.5745,8.5745,0,0,0-2.2519,6.2129,8.4724,8.4724,0,0,0,2.2519,6.1845,7.657,7.657,0,0,0,5.7285,2.3086A7.921,7.921,0,0,0,311.2773,604.6456Z"/><path class="cls-1" d="M353.3721,583.6124a10.3326,10.3326,0,0,1,4.0185,4.2471,13.2615,13.2615,0,0,1,1.4248,6.2129v17.3281H351.291V595.6681a7.1778,7.1778,0,0,0-1.5674-4.8447,5.2486,5.2486,0,0,0-4.1894-1.8243,6.2137,6.2137,0,0,0-5.2158,2.3936q-1.8531,2.3951-1.8526,7.41v12.5976h-7.5234V582.9572h7.5234v2.5654a12.1018,12.1018,0,0,1,8.9492-3.4209A11.6339,11.6339,0,0,1,353.3721,583.6124Z"/><path class="cls-1" d="M394.668,570.3605v41.04h-7.5235v-2.2226a14.51,14.51,0,0,1-9.4052,3.0771,13.25,13.25,0,0,1-6.8682-1.9092,14.1153,14.1153,0,0,1-5.1582-5.3584,16.5824,16.5824,0,0,1,0-15.56,14.3445,14.3445,0,0,1,5.1582-5.3867,13.1076,13.1076,0,0,1,6.8682-1.9385,14.1968,14.1968,0,0,1,9.4052,3.1357V570.3605Zm-11.6846,34.2851a8.01,8.01,0,0,0,3.0215-2.9922,8.6132,8.6132,0,0,0,1.14-4.4462,8.7714,8.7714,0,0,0-1.14-4.4747,8.0653,8.0653,0,0,0-6.9541-4.0751,7.61,7.61,0,0,0-5.7285,2.3369,8.5742,8.5742,0,0,0-2.252,6.2129,8.472,8.472,0,0,0,2.252,6.1845,7.6568,7.6568,0,0,0,5.7285,2.3086A7.921,7.921,0,0,0,382.9834,604.6456Z"/><path class="cls-1" d="M409.6875,605.3009a7.9092,7.9092,0,0,0,4.0186.9121,5.7872,5.7872,0,0,0,3.249-.7978,2.3867,2.3867,0,0,0,1.1972-2.0518q0-1.8808-3.1347-2.5654l-5.8145-1.1963a11.3484,11.3484,0,0,1-5.956-2.9072,7.0984,7.0984,0,0,1-2.0811-5.1875,8.5819,8.5819,0,0,1,1.4248-4.8731,9.4282,9.4282,0,0,1,4.0479-3.3349,14.698,14.698,0,0,1,6.1552-1.1973,14.0954,14.0954,0,0,1,8.294,2.3379,9.4947,9.4947,0,0,1,4.0752,6.0986l-7.1817,1.4248a4.0805,4.0805,0,0,0-1.6816-2.85,6.0861,6.0861,0,0,0-3.7334-1.083,4.3558,4.3558,0,0,0-2.9639.8262,2.5687,2.5687,0,0,0-.9121,1.9668,2.1573,2.1573,0,0,0,.5127,1.4531,3.81,3.81,0,0,0,2.0518.94l6.7832,1.4824a10.1,10.1,0,0,1,5.5576,2.9356,7.401,7.401,0,0,1,1.9092,5.1016,8.1863,8.1863,0,0,1-3.3916,7.0683q-3.3912,2.4492-9.0908,2.45a17.0062,17.0062,0,0,1-8.6641-2.08,8.0121,8.0121,0,0,1-4.1045-6.2988l7.5811-1.5391A3.8166,3.8166,0,0,0,409.6875,605.3009Z"/><path class="cls-1" d="M454.1758,582.9572h8.6064v6.1562h-8.6064v22.2871h-7.5244V589.1134h-4.3321v-6.1562h4.3321v-2.5645a10.3025,10.3025,0,0,1,3.0781-7.8662,11.3819,11.3819,0,0,1,8.1514-2.9072,11.9233,11.9233,0,0,1,5.0732,1.083l-1.71,6.0986a9.0674,9.0674,0,0,0-2.8505-.5127,4.31,4.31,0,0,0-3.05,1.083,3.9161,3.9161,0,0,0-1.1679,3.0215Z"/><path class="cls-1" d="M485.9238,582.7863l-.3984,7.2392h-1.6533q-10.147,0-10.1465,12.1973v9.1777h-7.5235V582.9572h7.5235v5.1875a11.8863,11.8863,0,0,1,10.2031-5.586A6.6835,6.6835,0,0,1,485.9238,582.7863Z"/><path class="cls-1" d="M517.2158,599.2023h-21.66a8.4092,8.4092,0,0,0,2.5371,4.8164,6.5883,6.5883,0,0,0,4.5879,1.7959,10.423,10.423,0,0,0,3.9336-.7129,6.75,6.75,0,0,0,3.1347-3.0488l6.7256,1.4238a13.6842,13.6842,0,0,1-5.415,6.5557,15.5947,15.5947,0,0,1-8.3789,2.2226,14.4834,14.4834,0,0,1-7.3243-1.9092,14.13,14.13,0,0,1-5.3007-5.33,15.371,15.371,0,0,1-1.9668-7.8086,15.5368,15.5368,0,0,1,1.9668-7.8379,14.0216,14.0216,0,0,1,5.3291-5.3575,14.7526,14.7526,0,0,1,7.41-1.91,14.0831,14.0831,0,0,1,7.0391,1.8535,14.2919,14.2919,0,0,1,5.2724,5.1582,15.0891,15.0891,0,0,1,2.1094,7.5234Zm-18.7812-9.1768a6.3544,6.3544,0,0,0-2.65,3.876h13.7363a7.0384,7.0384,0,0,0-2.5361-3.9326,6.9161,6.9161,0,0,0-4.19-1.3115A7.6341,7.6341,0,0,0,498.4346,590.0255Z"/><path class="cls-1" d="M551.5293,582.9572V622.8h-7.5234v-13.622a14.51,14.51,0,0,1-9.4053,3.0771,13.25,13.25,0,0,1-6.8682-1.9092,14.1161,14.1161,0,0,1-5.1582-5.3584,16.5824,16.5824,0,0,1,0-15.56,14.3452,14.3452,0,0,1,5.1582-5.3867,13.1076,13.1076,0,0,1,6.8682-1.9385,14.1972,14.1972,0,0,1,9.4053,3.1357v-2.28Zm-11.6846,21.6884a8.01,8.01,0,0,0,3.0215-2.9922,8.6133,8.6133,0,0,0,1.14-4.4462,8.7715,8.7715,0,0,0-1.14-4.4747,8.0653,8.0653,0,0,0-6.9541-4.0751,7.61,7.61,0,0,0-5.7285,2.3369,8.5742,8.5742,0,0,0-2.252,6.2129,8.472,8.472,0,0,0,2.252,6.1845,7.6568,7.6568,0,0,0,5.7285,2.3086A7.921,7.921,0,0,0,539.8447,604.6456Z"/><path class="cls-1" d="M586.3574,582.9572v28.4433H578.833v-2.5654a12.1,12.1,0,0,1-8.9482,3.42,11.6163,11.6163,0,0,1-5.9571-1.5107,10.3,10.3,0,0,1-4.0185-4.2461,13.2468,13.2468,0,0,1-1.4248-6.2129V582.9572h7.5244V598.69a7.17,7.17,0,0,0,1.5674,4.8447,5.24,5.24,0,0,0,4.1894,1.8242,6.2126,6.2126,0,0,0,5.2149-2.3945q1.8515-2.3936,1.8525-7.4092V582.9572Z"/><path class="cls-1" d="M621.1846,599.2023h-21.66a8.41,8.41,0,0,0,2.5371,4.8164,6.5886,6.5886,0,0,0,4.5879,1.7959,10.4226,10.4226,0,0,0,3.9336-.7129,6.75,6.75,0,0,0,3.1348-3.0488l6.7256,1.4238a13.6844,13.6844,0,0,1-5.4151,6.5557,15.5942,15.5942,0,0,1-8.3789,2.2226,14.4833,14.4833,0,0,1-7.3242-1.9092,14.13,14.13,0,0,1-5.3008-5.33,15.372,15.372,0,0,1-1.9668-7.8086,15.5378,15.5378,0,0,1,1.9668-7.8379,14.0223,14.0223,0,0,1,5.3291-5.3575,14.7527,14.7527,0,0,1,7.41-1.91,14.0825,14.0825,0,0,1,7.039,1.8535,14.2922,14.2922,0,0,1,5.2725,5.1582,15.0891,15.0891,0,0,1,2.1094,7.5234Zm-18.7813-9.1768a6.3544,6.3544,0,0,0-2.65,3.876h13.7364a7.0385,7.0385,0,0,0-2.5362-3.9326,6.9156,6.9156,0,0,0-4.1894-1.3115A7.6346,7.6346,0,0,0,602.4033,590.0255Z"/><path class="cls-1" d="M649.3145,583.6124a10.3333,10.3333,0,0,1,4.0185,4.2471,13.2615,13.2615,0,0,1,1.4248,6.2129v17.3281h-7.5244V595.6681a7.1783,7.1783,0,0,0-1.5674-4.8447,5.2486,5.2486,0,0,0-4.1894-1.8243,6.214,6.214,0,0,0-5.2159,2.3936q-1.853,2.3951-1.8525,7.41v12.5976h-7.5234V582.9572h7.5234v2.5654a12.1018,12.1018,0,0,1,8.9492-3.4209A11.6339,11.6339,0,0,1,649.3145,583.6124Z"/><path class="cls-1" d="M682.6875,610.1466a20.5544,20.5544,0,0,1-3.876,1.624,12.9258,12.9258,0,0,1-3.5332.4844q-5.2456,0-8.208-2.8213-2.9649-2.8212-2.9648-8.5215V589.1134h-6.0987v-6.1562h6.0987V574.35H671.63v8.6075h9.291v6.1562H671.63v11.2285a5.2974,5.2974,0,0,0,1.1113,3.7051,3.9555,3.9555,0,0,0,3.05,1.1973,8.5327,8.5327,0,0,0,2.28-.3711,11.5427,11.5427,0,0,0,2.45-.9971Z"/><path class="cls-1" d="M694.2578,611.4005h-7.5234v-41.04h7.5234Z"/><path class="cls-1" d="M730.9648,582.9005,713.6943,622.8h-8.3789l5.3008-12.3115-11.7988-27.5879h8.3789l7.5234,18.1826,7.8662-18.1826Z"/><path class="cls-1" d="M143.3291,652.5538a14.4122,14.4122,0,0,1,5.5859,5.3018,15.4847,15.4847,0,0,1,0,15.5039,14.41,14.41,0,0,1-5.5859,5.3008,15.9618,15.9618,0,0,1-7.667,1.8808,16.4028,16.4028,0,0,1-7.78-1.8808,14.361,14.361,0,0,1-5.6435-5.2725,15.5923,15.5923,0,0,1,0-15.5615,14.3754,14.3754,0,0,1,5.6435-5.2725,16.4028,16.4028,0,0,1,7.78-1.8808A15.9618,15.9618,0,0,1,143.3291,652.5538ZM139.51,673.046a8.6106,8.6106,0,0,0,0-14.8779,7.6834,7.6834,0,0,0-3.8477-1.0537,8.2037,8.2037,0,0,0-3.99,1.0264,7.9965,7.9965,0,0,0-3.0489,2.9628,9.26,9.26,0,0,0,0,9.0069,7.992,7.992,0,0,0,3.0489,2.9638,8.2136,8.2136,0,0,0,3.99,1.0254A7.6743,7.6743,0,0,0,139.51,673.046Z"/><path class="cls-1" d="M176.417,651.1857l-.3984,7.2392h-1.6534q-10.1469,0-10.1465,12.1983V679.8h-7.5234V651.3575h7.5234v5.1866a11.8887,11.8887,0,0,1,10.2032-5.586A6.7173,6.7173,0,0,1,176.417,651.1857Z"/><path class="cls-1" d="M222.13,651.3575V679.8h-7.5244v-2.5644a12.1,12.1,0,0,1-8.9483,3.42,11.6261,11.6261,0,0,1-5.957-1.5107,10.301,10.301,0,0,1-4.0186-4.2461,13.2471,13.2471,0,0,1-1.4248-6.2129V651.3575h7.5244V667.089a7.168,7.168,0,0,0,1.5674,4.8447,5.2406,5.2406,0,0,0,4.1895,1.8242,6.2142,6.2142,0,0,0,5.2148-2.3935q1.8516-2.3951,1.8526-7.41V651.3575Z"/><path class="cls-1" d="M236.8652,673.7013a7.91,7.91,0,0,0,4.0186.9121,5.7784,5.7784,0,0,0,3.249-.7988,2.3854,2.3854,0,0,0,1.1973-2.0518q0-1.8808-3.1348-2.5644l-5.8144-1.1973a11.3484,11.3484,0,0,1-5.9561-2.9072,7.0961,7.0961,0,0,1-2.0811-5.1865,8.5852,8.5852,0,0,1,1.4249-4.8741,9.42,9.42,0,0,1,4.0478-3.334,14.7,14.7,0,0,1,6.1553-1.1972,14.102,14.102,0,0,1,8.2939,2.3369,9.494,9.494,0,0,1,4.0752,6.0986l-7.1816,1.4258a4.083,4.083,0,0,0-1.6817-2.8506,6.0924,6.0924,0,0,0-3.7334-1.083,4.35,4.35,0,0,0-2.9638.8272,2.5652,2.5652,0,0,0-.9121,1.9658,2.16,2.16,0,0,0,.5127,1.4541,3.8238,3.8238,0,0,0,2.0517.94l6.7832,1.4824a10.0934,10.0934,0,0,1,5.5576,2.9356,7.3968,7.3968,0,0,1,1.9092,5.1006,8.1861,8.1861,0,0,1-3.3916,7.0683q-3.391,2.4507-9.0908,2.4512a17.0056,17.0056,0,0,1-8.6641-2.0811,8.01,8.01,0,0,1-4.1045-6.2978l7.5811-1.5391A3.8166,3.8166,0,0,0,236.8652,673.7013Z"/><path class="cls-1" d="M285.3437,667.6017h-21.66a8.4041,8.4041,0,0,0,2.5371,4.8164,6.5878,6.5878,0,0,0,4.5879,1.7959,10.4421,10.4421,0,0,0,3.9336-.7119,6.7531,6.7531,0,0,0,3.1348-3.05l6.7255,1.4248a13.677,13.677,0,0,1-5.415,6.5547,15.5861,15.5861,0,0,1-8.3789,2.2236,14.4827,14.4827,0,0,1-7.3242-1.9092,14.1363,14.1363,0,0,1-5.3008-5.33,15.3767,15.3767,0,0,1-1.9668-7.8086,15.5377,15.5377,0,0,1,1.9668-7.8378,14.0147,14.0147,0,0,1,5.3291-5.3575,14.7425,14.7425,0,0,1,7.41-1.91,14.0815,14.0815,0,0,1,7.039,1.8525,14.3,14.3,0,0,1,5.2725,5.1582,15.0917,15.0917,0,0,1,2.1093,7.5244Zm-18.7812-9.1768a6.3544,6.3544,0,0,0-2.65,3.876h13.7363a7.0378,7.0378,0,0,0-2.5361-3.9326,6.9158,6.9158,0,0,0-4.1894-1.3115A7.6344,7.6344,0,0,0,266.5625,658.4249Z"/><path class="cls-1" d="M327.3242,652.0128a10.3315,10.3315,0,0,1,4.0186,4.2461,13.2627,13.2627,0,0,1,1.4248,6.2139V679.8h-7.5244V664.0685a7.181,7.181,0,0,0-1.5674-4.8457,5.251,5.251,0,0,0-4.1895-1.8233,6.2138,6.2138,0,0,0-5.2158,2.3936q-1.853,2.3935-1.8525,7.41V679.8h-7.5235V638.76h7.5235V653.922a12.1049,12.1049,0,0,1,8.9492-3.42A11.6237,11.6237,0,0,1,327.3242,652.0128Z"/><path class="cls-1" d="M368.62,651.3575V679.8h-7.5234v-2.2226a14.5105,14.5105,0,0,1-9.4053,3.0781,13.25,13.25,0,0,1-6.8682-1.9092,14.1239,14.1239,0,0,1-5.1582-5.3584,16.5852,16.5852,0,0,1,0-15.5615,14.3526,14.3526,0,0,1,5.1582-5.3867,13.1077,13.1077,0,0,1,6.8682-1.9375,14.2017,14.2017,0,0,1,9.4053,3.1347v-2.2793ZM356.9355,673.046a8.0121,8.0121,0,0,0,3.0215-2.9931,8.6106,8.6106,0,0,0,1.14-4.4454,8.7688,8.7688,0,0,0-1.14-4.4746,8.0641,8.0641,0,0,0-6.9541-4.0761,7.6081,7.6081,0,0,0-5.7285,2.3379,8.5744,8.5744,0,0,0-2.2519,6.2128,8.4716,8.4716,0,0,0,2.2519,6.1836,7.657,7.657,0,0,0,5.7285,2.3086A7.93,7.93,0,0,0,356.9355,673.046Z"/><path class="cls-1" d="M399.03,652.0128a10.3307,10.3307,0,0,1,4.0185,4.2461,13.2627,13.2627,0,0,1,1.4248,6.2139V679.8h-7.5244V664.0685a7.1805,7.1805,0,0,0-1.5674-4.8457,5.2508,5.2508,0,0,0-4.1894-1.8233,6.2137,6.2137,0,0,0-5.2158,2.3936q-1.8531,2.3935-1.8526,7.41V679.8h-7.5234V651.3575h7.5234v2.5645a12.105,12.105,0,0,1,8.9492-3.42A11.6241,11.6241,0,0,1,399.03,652.0128Z"/><path class="cls-1" d="M440.3262,638.76V679.8h-7.5235v-2.2226a14.51,14.51,0,0,1-9.4052,3.0781,13.25,13.25,0,0,1-6.8682-1.9092,14.1225,14.1225,0,0,1-5.1582-5.3584,16.5844,16.5844,0,0,1,0-15.5615,14.351,14.351,0,0,1,5.1582-5.3867,13.1074,13.1074,0,0,1,6.8682-1.9375,14.2014,14.2014,0,0,1,9.4052,3.1347V638.76ZM428.6416,673.046a8.0135,8.0135,0,0,0,3.0215-2.9931,8.6105,8.6105,0,0,0,1.14-4.4454,8.7687,8.7687,0,0,0-1.14-4.4746,8.0641,8.0641,0,0,0-6.9541-4.0761,7.608,7.608,0,0,0-5.7285,2.3379,8.5741,8.5741,0,0,0-2.252,6.2128,8.4713,8.4713,0,0,0,2.252,6.1836A7.6568,7.6568,0,0,0,424.709,674.1,7.93,7.93,0,0,0,428.6416,673.046Z"/><path class="cls-1" d="M469.1963,673.7013a7.9091,7.9091,0,0,0,4.0185.9121,5.779,5.779,0,0,0,3.2491-.7988,2.3855,2.3855,0,0,0,1.1972-2.0518q0-1.8808-3.1347-2.5644l-5.8145-1.1973a11.3484,11.3484,0,0,1-5.956-2.9072,7.0961,7.0961,0,0,1-2.0811-5.1865,8.5851,8.5851,0,0,1,1.4248-4.8741,9.42,9.42,0,0,1,4.0479-3.334,14.7,14.7,0,0,1,6.1552-1.1972,14.1024,14.1024,0,0,1,8.294,2.3369,9.4947,9.4947,0,0,1,4.0752,6.0986l-7.1817,1.4258a4.0829,4.0829,0,0,0-1.6816-2.8506,6.0928,6.0928,0,0,0-3.7334-1.083,4.35,4.35,0,0,0-2.9639.8272,2.5652,2.5652,0,0,0-.9121,1.9658,2.16,2.16,0,0,0,.5127,1.4541,3.8242,3.8242,0,0,0,2.0518.94l6.7832,1.4824a10.0937,10.0937,0,0,1,5.5576,2.9356,7.3968,7.3968,0,0,1,1.9092,5.1006,8.1863,8.1863,0,0,1-3.3916,7.0683q-3.3912,2.4507-9.0909,2.4512a17.005,17.005,0,0,1-8.664-2.0811,8.01,8.01,0,0,1-4.1045-6.2978l7.581-1.5391A3.8169,3.8169,0,0,0,469.1963,673.7013Z"/><path class="cls-1" d="M519.4414,651.3575V679.8H511.918v-2.2226a14.5105,14.5105,0,0,1-9.4053,3.0781,13.25,13.25,0,0,1-6.8682-1.9092,14.1232,14.1232,0,0,1-5.1582-5.3584,16.5852,16.5852,0,0,1,0-15.5615,14.3518,14.3518,0,0,1,5.1582-5.3867,13.1077,13.1077,0,0,1,6.8682-1.9375,14.2017,14.2017,0,0,1,9.4053,3.1347v-2.2793ZM507.7568,673.046a8.0128,8.0128,0,0,0,3.0215-2.9931,8.6106,8.6106,0,0,0,1.14-4.4454,8.7688,8.7688,0,0,0-1.14-4.4746,8.0641,8.0641,0,0,0-6.9541-4.0761,7.6081,7.6081,0,0,0-5.7285,2.3379,8.5741,8.5741,0,0,0-2.252,6.2128,8.4713,8.4713,0,0,0,2.252,6.1836,7.657,7.657,0,0,0,5.7285,2.3086A7.93,7.93,0,0,0,507.7568,673.046Z"/><path class="cls-1" d="M549.8516,652.0128a10.3313,10.3313,0,0,1,4.0185,4.2461,13.2627,13.2627,0,0,1,1.4248,6.2139V679.8h-7.5244V664.0685a7.181,7.181,0,0,0-1.5674-4.8457,5.2509,5.2509,0,0,0-4.1894-1.8233,6.2137,6.2137,0,0,0-5.2158,2.3936q-1.8531,2.3935-1.8526,7.41V679.8h-7.5234V651.3575h7.5234v2.5645a12.105,12.105,0,0,1,8.9492-3.42A11.6241,11.6241,0,0,1,549.8516,652.0128Z"/><path class="cls-1" d="M569.9443,639.7a4.3784,4.3784,0,0,1,1.3106,3.1641,4.16,4.16,0,0,1-1.3106,3.1347,4.8739,4.8739,0,0,1-6.5273,0,4.204,4.204,0,0,1-1.2822-3.1347,4.5759,4.5759,0,0,1,7.8095-3.1641Zm.5127,40.1h-7.5244V651.3575h7.5244Z"/><path class="cls-1" d="M599.5264,678.546a20.5018,20.5018,0,0,1-3.876,1.625,12.9268,12.9268,0,0,1-3.5332.4844q-5.2457,0-8.208-2.8213-2.9649-2.8212-2.9649-8.5215v-11.8h-6.0986v-6.1553h6.0986V642.75h7.5244v8.6074H597.76v6.1553h-9.2911v11.23a5.2991,5.2991,0,0,0,1.1114,3.7051,3.9591,3.9591,0,0,0,3.05,1.1973,8.5327,8.5327,0,0,0,2.28-.3711,11.59,11.59,0,0,0,2.45-.9971Z"/><path class="cls-1" d="M610.9834,639.7a4.3787,4.3787,0,0,1,1.3105,3.1641,4.16,4.16,0,0,1-1.3105,3.1347,4.8739,4.8739,0,0,1-6.5273,0,4.2041,4.2041,0,0,1-1.2823-3.1347,4.5759,4.5759,0,0,1,7.81-3.1641Zm.5127,40.1h-7.5244V651.3575h7.5244Z"/><path class="cls-1" d="M626.9141,673.7013a7.9088,7.9088,0,0,0,4.0185.9121,5.7784,5.7784,0,0,0,3.249-.7988,2.3854,2.3854,0,0,0,1.1973-2.0518q0-1.8808-3.1348-2.5644l-5.8144-1.1973a11.3487,11.3487,0,0,1-5.9561-2.9072,7.096,7.096,0,0,1-2.081-5.1865,8.5851,8.5851,0,0,1,1.4248-4.8741,9.42,9.42,0,0,1,4.0478-3.334,14.7,14.7,0,0,1,6.1553-1.1972,14.1026,14.1026,0,0,1,8.294,2.3369,9.4942,9.4942,0,0,1,4.0751,6.0986l-7.1816,1.4258a4.0829,4.0829,0,0,0-1.6816-2.8506,6.0928,6.0928,0,0,0-3.7334-1.083,4.35,4.35,0,0,0-2.9639.8272,2.5652,2.5652,0,0,0-.9121,1.9658,2.16,2.16,0,0,0,.5127,1.4541,3.8242,3.8242,0,0,0,2.0517.94l6.7832,1.4824a10.094,10.094,0,0,1,5.5577,2.9356,7.3972,7.3972,0,0,1,1.9091,5.1006,8.1861,8.1861,0,0,1-3.3916,7.0683q-3.391,2.4507-9.0908,2.4512a17.005,17.005,0,0,1-8.664-2.0811,8.01,8.01,0,0,1-4.1045-6.2978l7.581-1.5391A3.8167,3.8167,0,0,0,626.9141,673.7013Z"/><path class="cls-1" d="M675.3926,667.6017h-21.66a8.4041,8.4041,0,0,0,2.5371,4.8164,6.5882,6.5882,0,0,0,4.5879,1.7959,10.4417,10.4417,0,0,0,3.9336-.7119,6.7522,6.7522,0,0,0,3.1348-3.05l6.7256,1.4248a13.6772,13.6772,0,0,1-5.4151,6.5547,15.5859,15.5859,0,0,1-8.3789,2.2236,14.4833,14.4833,0,0,1-7.3242-1.9092,14.137,14.137,0,0,1-5.3008-5.33,15.3767,15.3767,0,0,1-1.9668-7.8086,15.5377,15.5377,0,0,1,1.9668-7.8378,14.0154,14.0154,0,0,1,5.3291-5.3575,14.7425,14.7425,0,0,1,7.41-1.91,14.0815,14.0815,0,0,1,7.039,1.8525,14.3,14.3,0,0,1,5.2725,5.1582,15.0928,15.0928,0,0,1,2.1094,7.5244Zm-18.7813-9.1768a6.3544,6.3544,0,0,0-2.65,3.876h13.7364a7.0385,7.0385,0,0,0-2.5362-3.9326,6.9156,6.9156,0,0,0-4.1894-1.3115A7.6346,7.6346,0,0,0,656.6113,658.4249Z"/><path class="cls-1" d="M700.8145,651.1857l-.3985,7.2392h-1.6533q-10.147,0-10.1465,12.1983V679.8h-7.5234V651.3575h7.5234v5.1866a11.8887,11.8887,0,0,1,10.2031-5.586A6.7176,6.7176,0,0,1,700.8145,651.1857Z"/></g><g id="Outlinet_ikoner" data-name="Outlinet ikoner"><path class="cls-2" d="M543.2078,150.6064a46.0225,46.0225,0,1,0,46.0249,46.02,46.0742,46.0742,0,0,0-46.0249-46.02m0,76.8092a30.7894,30.7894,0,1,1,30.7945-30.7893,30.8262,30.8262,0,0,1-30.7945,30.7893"/><path class="cls-2" d="M510.6272,267.51a59.2535,59.2535,0,1,0,59.2535,59.2534A59.3151,59.3151,0,0,0,510.6272,267.51m0,103.2712a44.02,44.02,0,1,1,44.023-44.0178,44.0661,44.0661,0,0,1-44.023,44.0178"/><path class="cls-2" d="M410.1993,177.783a45.9865,45.9865,0,1,0,45.9838,45.9838,46.0368,46.0368,0,0,0-45.9838-45.9838m0,76.7373a30.7535,30.7535,0,1,1,30.7534-30.7535A30.7923,30.7923,0,0,1,410.1993,254.52"/><path class="cls-2" d="M430.1832,142.4815A38.3816,38.3816,0,1,0,391.8067,104.1a38.424,38.424,0,0,0,38.3765,38.3817m0-61.5277a23.1486,23.1486,0,1,1-23.146,23.146,23.1751,23.1751,0,0,1,23.146-23.146"/><path class="cls-3" d="M455.2869,486.4246A147.2075,147.2075,0,0,1,350.8913,443.264L246.9987,339.3766a36.9707,36.9707,0,0,1,20.41-62.6825l-25.81-25.8a37.0018,37.0018,0,0,1,20.3843-62.703l-7.628-7.6281a36.9947,36.9947,0,0,1,52.3183-52.3185L341.59,163.1612l-10.7644,10.77-34.9218-34.9166a21.7641,21.7641,0,1,0-30.7843,30.774l28.5514,28.5462.2464.2464,30.82,30.82L313.9726,240.176l-31.01-31.0154a21.7631,21.7631,0,0,0-30.5943,30.9588L366.7326,354.4736,355.968,365.2484l-67.42-67.41a21.7605,21.7605,0,1,0-30.7792,30.7688L361.6609,432.4892c51.6306,51.6255,135.6315,51.6255,187.2518,0l10.77,10.7748a147.2076,147.2076,0,0,1-104.3954,43.1606"/><path class="cls-2" d="M543.2078,150.6064a46.0225,46.0225,0,1,0,46.0249,46.02,46.0742,46.0742,0,0,0-46.0249-46.02m0,76.8092a30.7894,30.7894,0,1,1,30.7945-30.7893,30.8262,30.8262,0,0,1-30.7945,30.7893"/><path class="cls-2" d="M510.6272,267.51a59.2535,59.2535,0,1,0,59.2535,59.2534A59.3151,59.3151,0,0,0,510.6272,267.51m0,103.2712a44.02,44.02,0,1,1,44.023-44.0178,44.0661,44.0661,0,0,1-44.023,44.0178"/><path class="cls-2" d="M410.1993,177.783a45.9865,45.9865,0,1,0,45.9838,45.9838,46.0368,46.0368,0,0,0-45.9838-45.9838m0,76.7373a30.7535,30.7535,0,1,1,30.7534-30.7535A30.7923,30.7923,0,0,1,410.1993,254.52"/><path class="cls-2" d="M430.1832,142.4815A38.3816,38.3816,0,1,0,391.8067,104.1a38.424,38.424,0,0,0,38.3765,38.3817m0-61.5277a23.1486,23.1486,0,1,1-23.146,23.146,23.1751,23.1751,0,0,1,23.146-23.146"/><path class="cls-3" d="M455.2869,486.4246A147.2075,147.2075,0,0,1,350.8913,443.264L246.9987,339.3766a36.9707,36.9707,0,0,1,20.41-62.6825l-25.81-25.8a37.0018,37.0018,0,0,1,20.3843-62.703l-7.628-7.6281a36.9947,36.9947,0,0,1,52.3183-52.3185L341.59,163.1612l-10.7644,10.77-34.9218-34.9166a21.7641,21.7641,0,1,0-30.7843,30.774l28.5514,28.5462.2464.2464,30.82,30.82L313.9726,240.176l-31.01-31.0154a21.7631,21.7631,0,0,0-30.5943,30.9588L366.7326,354.4736,355.968,365.2484l-67.42-67.41a21.7605,21.7605,0,1,0-30.7792,30.7688L361.6609,432.4892c51.6306,51.6255,135.6315,51.6255,187.2518,0l10.77,10.7748a147.2076,147.2076,0,0,1-104.3954,43.1606"/></g></svg>